STARTFONT 2.1
FONT -DIGITAL-VT220-Bold-I-Normal-136col-40-400-150-75-c-340-iso10646-1
SIZE 40 75 75
FONTBOUNDINGBOX 47 40 -6 -8
STARTPROPERTIES 21
FOUNDRY "DIGITAL"
FAMILY_NAME "vt220"
WEIGHT_NAME "Bold"
RELATIVE_SETWIDTH 50
SLANT "I"
SETWIDTH_NAME "Normal"
ADD_STYLE_NAME "136col"
PIXEL_SIZE 40
POINT_SIZE 400
RESOLUTION_X 75
RESOLUTION_Y 75
SPACING "c"
CHARSET_REGISTRY "ISO10646"
CHARSET_ENCODING "1"
CAP_HEIGHT 28
X_HEIGHT 20
WEIGHT 10
QUAD_WIDTH 34
FONT_ASCENT 32
FONT_DESCENT 8
AVERAGE_WIDTH 340
ENDPROPERTIES
CHARS 237
STARTCHAR U+00FD
ENCODING 253
SWIDTH 1000 0
DWIDTH 34 0
BBX 47 40 -6 -8
BITMAP
000000000000
000000000000
000000000000
000000000000
000000000000
000000000000
000000000000
000000000000
000000000000
000000000000
000000000000
000000000000
000000000000
000000000000
000000000000
000000000000
000000000000
000000000000
000000000000
000000000000
000000000000
000000000000
000000000000
000000000000
000000000000
000000000000
000000000000
000000000000
000000000000
000000000000
000000000000
000000000000
000000000000
000000000000
000000000000
000000000000
000000000000
000000000000
000000000000
000000000000
ENDCHAR
STARTCHAR U+25A1
ENCODING 9633
SWIDTH 1000 0
DWIDTH 34 0
BBX 47 40 -6 -8
BITMAP
000000000000
000000000000
000000000000
000000000000
001fffffffc0
001fffffffc0
003fffffff80
003fffffff80
003f80003f80
007f00007f00
007f00007f00
007f00007f00
00fe0000fe00
00fe0000fe00
00fe0000fe00
01fc0001fc00
01fc0001fc00
01fc0001fc00
03f80003f800
03f80003f800
03f80003f800
07f00007f000
07f00007f000
07f00007f000
0fe0000fe000
0fe0000fe000
0fe0000fe000
1fc0001fc000
1fffffffc000
1fffffffc000
3fffffff8000
3fffffff8000
000000000000
000000000000
000000000000
000000000000
000000000000
000000000000
000000000000
000000000000
ENDCHAR
STARTCHAR U+00FE
ENCODING 254
SWIDTH 1000 0
DWIDTH 34 0
BBX 47 40 -6 -8
BITMAP
000000000000
000000000000
000000000000
000000000000
001fc0000000
001fc0000000
003f80000000
003f80000000
003f80000000
007f00000000
007f00000000
007f00000000
00feffffe000
00feffffe000
00feffffe000
01fdffffc000
01ffc001fc00
01ffc001fc00
03ff8003f800
03ff8003f800
03ff8003f800
07ff0007f000
07ff0007f000
07ff0007f000
0feffffe0000
0feffffe0000
0feffffe0000
1fdffffc0000
1fc000000000
1fc000000000
3f8000000000
3f8000000000
3f8000000000
7f0000000000
7f0000000000
7f0000000000
fe0000000000
fe0000000000
fe0000000000
fc0000000000
ENDCHAR
STARTCHAR U+00FF
ENCODING 255
SWIDTH 1000 0
DWIDTH 34 0
BBX 47 40 -6 -8
BITMAP
000000000000
000000000000
000000000000
000000000000
0001fc01fc00
0001fc01fc00
0003f803f800
0003f803f800
000000000000
000000000000
000000000000
000000000000
00fe000fe000
00fe000fe000
00fe000fe000
01fc001fc000
01fc001fc000
01fc001fc000
03f8003f8000
03f8003f8000
03f803ff8000
07f007ff0000
07f007ff0000
07f007ff0000
00fffefe0000
00fffefe0000
00fffefe0000
01fffdfc0000
000001fc0000
000001fc0000
000003f80000
000003f80000
3f8003f80000
7f0007f00000
7f0007f00000
7f0007f00000
0ffffe000000
0ffffe000000
0ffffe000000
1ffffc000000
ENDCHAR
STARTCHAR U+00FC
ENCODING 252
SWIDTH 1000 0
DWIDTH 34 0
BBX 47 40 -6 -8
BITMAP
000000000000
000000000000
000000000000
000000000000
0001fc01fc00
0001fc01fc00
0003f803f800
0003f803f800
000000000000
000000000000
000000000000
000000000000
00fe000fe000
00fe000fe000
00fe000fe000
01fc001fc000
01fc001fc000
01fc001fc000
03f8003f8000
03f8003f8000
03f8003f8000
07f0007f0000
07f0007f0000
07f0007f0000
0fe000fe0000
0fe000fe0000
0fe000fe0000
1fc001fc0000
01ffffdfc000
01ffffdfc000
03ffffbf8000
03ffffbf8000
000000000000
000000000000
000000000000
000000000000
000000000000
000000000000
000000000000
000000000000
ENDCHAR
STARTCHAR U+00FB
ENCODING 251
SWIDTH 1000 0
DWIDTH 34 0
BBX 47 40 -6 -8
BITMAP
00000fffe000
00000fffe000
00000fffe000
00001fffc000
0001fc01fc00
0001fc01fc00
0003f803f800
0003f803f800
000000000000
000000000000
000000000000
000000000000
00fe000fe000
00fe000fe000
00fe000fe000
01fc001fc000
01fc001fc000
01fc001fc000
03f8003f8000
03f8003f8000
03f8003f8000
07f0007f0000
07f0007f0000
07f0007f0000
0fe000fe0000
0fe000fe0000
0fe000fe0000
1fc001fc0000
01ffffdfc000
01ffffdfc000
03ffffbf8000
03ffffbf8000
000000000000
000000000000
000000000000
000000000000
000000000000
000000000000
000000000000
000000000000
ENDCHAR
STARTCHAR U+00FA
ENCODING 250
SWIDTH 1000 0
DWIDTH 34 0
BBX 47 40 -6 -8
BITMAP
000000000000
000000000000
000000000000
000000000000
000001ffc000
000001ffc000
000003ff8000
000003ff8000
0003ff800000
0007ff000000
0007ff000000
0007ff000000
00fe000fe000
00fe000fe000
00fe000fe000
01fc001fc000
01fc001fc000
01fc001fc000
03f8003f8000
03f8003f8000
03f8003f8000
07f0007f0000
07f0007f0000
07f0007f0000
0fe000fe0000
0fe000fe0000
0fe000fe0000
1fc001fc0000
01ffffdfc000
01ffffdfc000
03ffffbf8000
03ffffbf8000
000000000000
000000000000
000000000000
000000000000
000000000000
000000000000
000000000000
000000000000
ENDCHAR
STARTCHAR U+00F9
ENCODING 249
SWIDTH 1000 0
DWIDTH 34 0
BBX 47 40 -6 -8
BITMAP
000000000000
000000000000
000000000000
000000000000
0001ffc00000
0001ffc00000
0003ff800000
0003ff800000
000003ff8000
000007ff0000
000007ff0000
000007ff0000
00fe000fe000
00fe000fe000
00fe000fe000
01fc001fc000
01fc001fc000
01fc001fc000
03f8003f8000
03f8003f8000
03f8003f8000
07f0007f0000
07f0007f0000
07f0007f0000
0fe000fe0000
0fe000fe0000
0fe000fe0000
1fc001fc0000
01ffffdfc000
01ffffdfc000
03ffffbf8000
03ffffbf8000
000000000000
000000000000
000000000000
000000000000
000000000000
000000000000
000000000000
000000000000
ENDCHAR
STARTCHAR U+00F8
ENCODING 248
SWIDTH 1000 0
DWIDTH 34 0
BBX 47 40 -6 -8
BITMAP
000000000000
000000000000
000000000000
000000000000
000000000000
000000000000
000000000000
000000000000
000000003f80
000000007f00
000000007f00
000000007f00
000fffffe000
000fffffe000
000fffffe000
001fffffc000
01fc01fdfc00
01fc01fdfc00
03f803fbf800
03f803fbf800
03f83f83f800
07f07f07f000
07f07f07f000
07f07f07f000
0fefe00fe000
0fefe00fe000
0fefe00fe000
1fdfc01fc000
01fffffc0000
01fffffc0000
03fffff80000
03fffff80000
3f8000000000
7f0000000000
7f0000000000
7f0000000000
000000000000
000000000000
000000000000
000000000000
ENDCHAR
STARTCHAR U+0153
ENCODING 339
SWIDTH 1000 0
DWIDTH 34 0
BBX 47 40 -6 -8
BITMAP
000000000000
000000000000
000000000000
000000000000
000000000000
000000000000
000000000000
000000000000
000000000000
000000000000
000000000000
000000000000
000ffeffe000
000ffeffe000
000ffeffe000
001ffdffc000
01fc1fc1fc00
01fc1fc1fc00
03f83f83f800
03f83f83f800
03f83ffff800
07f07ffff000
07f07ffff000
07f07ffff000
0fe0fe000000
0fe0fe000000
0fe0fe000000
1fc1fc000000
01ffdfffc000
01ffdfffc000
03ffbfff8000
03ffbfff8000
000000000000
000000000000
000000000000
000000000000
000000000000
000000000000
000000000000
000000000000
ENDCHAR
STARTCHAR U+00F6
ENCODING 246
SWIDTH 1000 0
DWIDTH 34 0
BBX 47 40 -6 -8
BITMAP
000000000000
000000000000
000000000000
000000000000
0001fc01fc00
0001fc01fc00
0003f803f800
0003f803f800
000000000000
000000000000
000000000000
000000000000
000fffffe000
000fffffe000
000fffffe000
001fffffc000
01fc0001fc00
01fc0001fc00
03f80003f800
03f80003f800
03f80003f800
07f00007f000
07f00007f000
07f00007f000
0fe0000fe000
0fe0000fe000
0fe0000fe000
1fc0001fc000
01fffffc0000
01fffffc0000
03fffff80000
03fffff80000
000000000000
000000000000
000000000000
000000000000
000000000000
000000000000
000000000000
000000000000
ENDCHAR
STARTCHAR U+00F5
ENCODING 245
SWIDTH 1000 0
DWIDTH 34 0
BBX 47 40 -6 -8
BITMAP
0000ffe0fe00
0000ffe0fe00
0000ffe0fe00
0001ffc1fc00
001fc1ffc000
001fc1ffc000
003f83ff8000
003f83ff8000
000000000000
000000000000
000000000000
000000000000
000fffffe000
000fffffe000
000fffffe000
001fffffc000
01fc0001fc00
01fc0001fc00
03f80003f800
03f80003f800
03f80003f800
07f00007f000
07f00007f000
07f00007f000
0fe0000fe000
0fe0000fe000
0fe0000fe000
1fc0001fc000
01fffffc0000
01fffffc0000
03fffff80000
03fffff80000
000000000000
000000000000
000000000000
000000000000
000000000000
000000000000
000000000000
000000000000
ENDCHAR
STARTCHAR U+00F4
ENCODING 244
SWIDTH 1000 0
DWIDTH 34 0
BBX 47 40 -6 -8
BITMAP
00000fffe000
00000fffe000
00000fffe000
00001fffc000
0001fc01fc00
0001fc01fc00
0003f803f800
0003f803f800
000000000000
000000000000
000000000000
000000000000
000fffffe000
000fffffe000
000fffffe000
001fffffc000
01fc0001fc00
01fc0001fc00
03f80003f800
03f80003f800
03f80003f800
07f00007f000
07f00007f000
07f00007f000
0fe0000fe000
0fe0000fe000
0fe0000fe000
1fc0001fc000
01fffffc0000
01fffffc0000
03fffff80000
03fffff80000
000000000000
000000000000
000000000000
000000000000
000000000000
000000000000
000000000000
000000000000
ENDCHAR
STARTCHAR U+00F3
ENCODING 243
SWIDTH 1000 0
DWIDTH 34 0
BBX 47 40 -6 -8
BITMAP
000000000000
000000000000
000000000000
000000000000
000001ffc000
000001ffc000
000003ff8000
000003ff8000
0003ff800000
0007ff000000
0007ff000000
0007ff000000
000fffffe000
000fffffe000
000fffffe000
001fffffc000
01fc0001fc00
01fc0001fc00
03f80003f800
03f80003f800
03f80003f800
07f00007f000
07f00007f000
07f00007f000
0fe0000fe000
0fe0000fe000
0fe0000fe000
1fc0001fc000
01fffffc0000
01fffffc0000
03fffff80000
03fffff80000
000000000000
000000000000
000000000000
000000000000
000000000000
000000000000
000000000000
000000000000
ENDCHAR
STARTCHAR U+00F2
ENCODING 242
SWIDTH 1000 0
DWIDTH 34 0
BBX 47 40 -6 -8
BITMAP
000000000000
000000000000
000000000000
000000000000
00001ffc0000
00001ffc0000
00003ff80000
00003ff80000
0000003ff800
0000007ff000
0000007ff000
0000007ff000
000fffffe000
000fffffe000
000fffffe000
001fffffc000
01fc0001fc00
01fc0001fc00
03f80003f800
03f80003f800
03f80003f800
07f00007f000
07f00007f000
07f00007f000
0fe0000fe000
0fe0000fe000
0fe0000fe000
1fc0001fc000
01fffffc0000
01fffffc0000
03fffff80000
03fffff80000
000000000000
000000000000
000000000000
000000000000
000000000000
000000000000
000000000000
000000000000
ENDCHAR
STARTCHAR U+00F1
ENCODING 241
SWIDTH 1000 0
DWIDTH 34 0
BBX 47 40 -6 -8
BITMAP
0000ffe0fe00
0000ffe0fe00
0000ffe0fe00
0001ffc1fc00
001fc1ffc000
001fc1ffc000
003f83ff8000
003f83ff8000
000000000000
000000000000
000000000000
000000000000
00feffffe000
00feffffe000
00feffffe000
01fdffffc000
01ffc001fc00
01ffc001fc00
03ff8003f800
03ff8003f800
03f80003f800
07f00007f000
07f00007f000
07f00007f000
0fe0000fe000
0fe0000fe000
0fe0000fe000
1fc0001fc000
1fc0001fc000
1fc0001fc000
3f80003f8000
3f80003f8000
000000000000
000000000000
000000000000
000000000000
000000000000
000000000000
000000000000
000000000000
ENDCHAR
STARTCHAR U+00F0
ENCODING 240
SWIDTH 1000 0
DWIDTH 34 0
BBX 47 40 -6 -8
BITMAP
000000fe0fe0
000000fe0fe0
000000fe0fe0
000001fc1fc0
0000001ffc00
0000001ffc00
0000003ff800
0000003ff800
000003f83f80
000007f07f00
000007f07f00
000007f07f00
000ffffefe00
000ffffefe00
000ffffefe00
001ffffdfc00
01fc001ffc00
01fc001ffc00
03f8003ff800
03f8003ff800
03f80003f800
07f00007f000
07f00007f000
07f00007f000
0fe000fe0000
0fe000fe0000
0fe000fe0000
1fc001fc0000
01ffffc00000
01ffffc00000
03ffff800000
03ffff800000
000000000000
000000000000
000000000000
000000000000
000000000000
000000000000
000000000000
000000000000
ENDCHAR
STARTCHAR U+00EF
ENCODING 239
SWIDTH 1000 0
DWIDTH 34 0
BBX 47 40 -6 -8
BITMAP
000000000000
000000000000
000000000000
000000000000
0001fc01fc00
0001fc01fc00
0003f803f800
0003f803f800
000000000000
000000000000
000000000000
000000000000
0000ffe00000
0000ffe00000
0000ffe00000
0001ffc00000
00001fc00000
00001fc00000
00003f800000
00003f800000
00003f800000
00007f000000
00007f000000
00007f000000
0000fe000000
0000fe000000
0000fe000000
0001fc000000
01fffffc0000
01fffffc0000
03fffff80000
03fffff80000
000000000000
000000000000
000000000000
000000000000
000000000000
000000000000
000000000000
000000000000
ENDCHAR
STARTCHAR U+00EE
ENCODING 238
SWIDTH 1000 0
DWIDTH 34 0
BBX 47 40 -6 -8
BITMAP
00000fffe000
00000fffe000
00000fffe000
00001fffc000
0001fc01fc00
0001fc01fc00
0003f803f800
0003f803f800
000000000000
000000000000
000000000000
000000000000
0000ffe00000
0000ffe00000
0000ffe00000
0001ffc00000
00001fc00000
00001fc00000
00003f800000
00003f800000
00003f800000
00007f000000
00007f000000
00007f000000
0000fe000000
0000fe000000
0000fe000000
0001fc000000
01fffffc0000
01fffffc0000
03fffff80000
03fffff80000
000000000000
000000000000
000000000000
000000000000
000000000000
000000000000
000000000000
000000000000
ENDCHAR
STARTCHAR U+00ED
ENCODING 237
SWIDTH 1000 0
DWIDTH 34 0
BBX 47 40 -6 -8
BITMAP
000000000000
000000000000
000000000000
000000000000
000001ffc000
000001ffc000
000003ff8000
000003ff8000
0003ff800000
0007ff000000
0007ff000000
0007ff000000
0000ffe00000
0000ffe00000
0000ffe00000
0001ffc00000
00001fc00000
00001fc00000
00003f800000
00003f800000
00003f800000
00007f000000
00007f000000
00007f000000
0000fe000000
0000fe000000
0000fe000000
0001fc000000
01fffffc0000
01fffffc0000
03fffff80000
03fffff80000
000000000000
000000000000
000000000000
000000000000
000000000000
000000000000
000000000000
000000000000
ENDCHAR
STARTCHAR U+00EC
ENCODING 236
SWIDTH 1000 0
DWIDTH 34 0
BBX 47 40 -6 -8
BITMAP
000000000000
000000000000
000000000000
000000000000
0001ffc00000
0001ffc00000
0003ff800000
0003ff800000
000003ff8000
000007ff0000
000007ff0000
000007ff0000
0000ffe00000
0000ffe00000
0000ffe00000
0001ffc00000
00001fc00000
00001fc00000
00003f800000
00003f800000
00003f800000
00007f000000
00007f000000
00007f000000
0000fe000000
0000fe000000
0000fe000000
0001fc000000
01fffffc0000
01fffffc0000
03fffff80000
03fffff80000
000000000000
000000000000
000000000000
000000000000
000000000000
000000000000
000000000000
000000000000
ENDCHAR
STARTCHAR U+00EB
ENCODING 235
SWIDTH 1000 0
DWIDTH 34 0
BBX 47 40 -6 -8
BITMAP
000000000000
000000000000
000000000000
000000000000
0001fc01fc00
0001fc01fc00
0003f803f800
0003f803f800
000000000000
000000000000
000000000000
000000000000
000fffffe000
000fffffe000
000fffffe000
001fffffc000
01fc0001fc00
01fc0001fc00
03f80003f800
03f80003f800
03fffffff800
07fffffff000
07fffffff000
07fffffff000
0fe000000000
0fe000000000
0fe000000000
1fc000000000
01fffffc0000
01fffffc0000
03fffff80000
03fffff80000
000000000000
000000000000
000000000000
000000000000
000000000000
000000000000
000000000000
000000000000
ENDCHAR
STARTCHAR U+00EA
ENCODING 234
SWIDTH 1000 0
DWIDTH 34 0
BBX 47 40 -6 -8
BITMAP
00000fffe000
00000fffe000
00000fffe000
00001fffc000
0001fc01fc00
0001fc01fc00
0003f803f800
0003f803f800
000000000000
000000000000
000000000000
000000000000
000fffffe000
000fffffe000
000fffffe000
001fffffc000
01fc0001fc00
01fc0001fc00
03f80003f800
03f80003f800
03fffffff800
07fffffff000
07fffffff000
07fffffff000
0fe000000000
0fe000000000
0fe000000000
1fc000000000
01fffffc0000
01fffffc0000
03fffff80000
03fffff80000
000000000000
000000000000
000000000000
000000000000
000000000000
000000000000
000000000000
000000000000
ENDCHAR
STARTCHAR U+00E9
ENCODING 233
SWIDTH 1000 0
DWIDTH 34 0
BBX 47 40 -6 -8
BITMAP
000000000000
000000000000
000000000000
000000000000
000001ffc000
000001ffc000
000003ff8000
000003ff8000
0003ff800000
0007ff000000
0007ff000000
0007ff000000
000fffffe000
000fffffe000
000fffffe000
001fffffc000
01fc0001fc00
01fc0001fc00
03f80003f800
03f80003f800
03fffffff800
07fffffff000
07fffffff000
07fffffff000
0fe000000000
0fe000000000
0fe000000000
1fc000000000
01fffffc0000
01fffffc0000
03fffff80000
03fffff80000
000000000000
000000000000
000000000000
000000000000
000000000000
000000000000
000000000000
000000000000
ENDCHAR
STARTCHAR U+00E8
ENCODING 232
SWIDTH 1000 0
DWIDTH 34 0
BBX 47 40 -6 -8
BITMAP
000000000000
000000000000
000000000000
000000000000
00001ffc0000
00001ffc0000
00003ff80000
00003ff80000
0000003ff800
0000007ff000
0000007ff000
0000007ff000
000fffffe000
000fffffe000
000fffffe000
001fffffc000
01fc0001fc00
01fc0001fc00
03f80003f800
03f80003f800
03fffffff800
07fffffff000
07fffffff000
07fffffff000
0fe000000000
0fe000000000
0fe000000000
1fc000000000
01fffffc0000
01fffffc0000
03fffff80000
03fffff80000
000000000000
000000000000
000000000000
000000000000
000000000000
000000000000
000000000000
000000000000
ENDCHAR
STARTCHAR U+00E7
ENCODING 231
SWIDTH 1000 0
DWIDTH 34 0
BBX 47 40 -6 -8
BITMAP
000000000000
000000000000
000000000000
000000000000
000000000000
000000000000
000000000000
000000000000
000000000000
000000000000
000000000000
000000000000
000fffffe000
000fffffe000
000fffffe000
001fffffc000
01fc0001fc00
01fc0001fc00
03f80003f800
03f80003f800
03f800000000
07f000000000
07f000000000
07f000000000
0fe0000fe000
0fe0000fe000
0fe0000fe000
1fc0001fc000
01fffffc0000
01fffffc0000
03fffff80000
03fffff80000
00003f800000
00007f000000
00007f000000
00007f000000
00fffe000000
00fffe000000
00fffe000000
01fffc000000
ENDCHAR
STARTCHAR U+00E6
ENCODING 230
SWIDTH 1000 0
DWIDTH 34 0
BBX 47 40 -6 -8
BITMAP
000000000000
000000000000
000000000000
000000000000
000000000000
000000000000
000000000000
000000000000
000000000000
000000000000
000000000000
000000000000
000ffeffe000
000ffeffe000
000ffeffe000
001ffdffc000
00001fc1fc00
00001fc1fc00
00003f83f800
00003f83f800
003ffffff800
007ffffff000
007ffffff000
007ffffff000
0fe0fe000000
0fe0fe000000
0fe0fe000000
1fc1fc000000
01ffffffc000
01ffffffc000
03ffffff8000
03ffffff8000
000000000000
000000000000
000000000000
000000000000
000000000000
000000000000
000000000000
000000000000
ENDCHAR
STARTCHAR U+00E5
ENCODING 229
SWIDTH 1000 0
DWIDTH 34 0
BBX 47 40 -6 -8
BITMAP
00000fffe000
00000fffe000
00000fffe000
00001fffc000
0001fc01fc00
0001fc01fc00
0003f803f800
0003f803f800
00003fff8000
00007fff0000
00007fff0000
00007fff0000
000fffffe000
000fffffe000
000fffffe000
001fffffc000
00000001fc00
00000001fc00
00000003f800
00000003f800
003ffffff800
007ffffff000
007ffffff000
007ffffff000
0fe000ffe000
0fe000ffe000
0fe000ffe000
1fc001ffc000
01ffffdfc000
01ffffdfc000
03ffffbf8000
03ffffbf8000
000000000000
000000000000
000000000000
000000000000
000000000000
000000000000
000000000000
000000000000
ENDCHAR
STARTCHAR U+00E4
ENCODING 228
SWIDTH 1000 0
DWIDTH 34 0
BBX 47 40 -6 -8
BITMAP
000000000000
000000000000
000000000000
000000000000
0001fc01fc00
0001fc01fc00
0003f803f800
0003f803f800
000000000000
000000000000
000000000000
000000000000
000fffffe000
000fffffe000
000fffffe000
001fffffc000
00000001fc00
00000001fc00
00000003f800
00000003f800
003ffffff800
007ffffff000
007ffffff000
007ffffff000
0fe000ffe000
0fe000ffe000
0fe000ffe000
1fc001ffc000
01ffffdfc000
01ffffdfc000
03ffffbf8000
03ffffbf8000
000000000000
000000000000
000000000000
000000000000
000000000000
000000000000
000000000000
000000000000
ENDCHAR
STARTCHAR U+00E3
ENCODING 227
SWIDTH 1000 0
DWIDTH 34 0
BBX 47 40 -6 -8
BITMAP
00000ffe0fe0
00000ffe0fe0
00000ffe0fe0
00001ffc1fc0
0001fc1ffc00
0001fc1ffc00
0003f83ff800
0003f83ff800
000000000000
000000000000
000000000000
000000000000
000fffffe000
000fffffe000
000fffffe000
001fffffc000
00000001fc00
00000001fc00
00000003f800
00000003f800
003ffffff800
007ffffff000
007ffffff000
007ffffff000
0fe000ffe000
0fe000ffe000
0fe000ffe000
1fc001ffc000
01ffffdfc000
01ffffdfc000
03ffffbf8000
03ffffbf8000
000000000000
000000000000
000000000000
000000000000
000000000000
000000000000
000000000000
000000000000
ENDCHAR
STARTCHAR U+00E2
ENCODING 226
SWIDTH 1000 0
DWIDTH 34 0
BBX 47 40 -6 -8
BITMAP
00000fffe000
00000fffe000
00000fffe000
00001fffc000
0001fc01fc00
0001fc01fc00
0003f803f800
0003f803f800
000000000000
000000000000
000000000000
000000000000
000fffffe000
000fffffe000
000fffffe000
001fffffc000
00000001fc00
00000001fc00
00000003f800
00000003f800
003ffffff800
007ffffff000
007ffffff000
007ffffff000
0fe000ffe000
0fe000ffe000
0fe000ffe000
1fc001ffc000
01ffffdfc000
01ffffdfc000
03ffffbf8000
03ffffbf8000
000000000000
000000000000
000000000000
000000000000
000000000000
000000000000
000000000000
000000000000
ENDCHAR
STARTCHAR U+00E1
ENCODING 225
SWIDTH 1000 0
DWIDTH 34 0
BBX 47 40 -6 -8
BITMAP
000000000000
000000000000
000000000000
000000000000
000001ffc000
000001ffc000
000003ff8000
000003ff8000
0003ff800000
0007ff000000
0007ff000000
0007ff000000
000fffffe000
000fffffe000
000fffffe000
001fffffc000
00000001fc00
00000001fc00
00000003f800
00000003f800
003ffffff800
007ffffff000
007ffffff000
007ffffff000
0fe000ffe000
0fe000ffe000
0fe000ffe000
1fc001ffc000
01ffffdfc000
01ffffdfc000
03ffffbf8000
03ffffbf8000
000000000000
000000000000
000000000000
000000000000
000000000000
000000000000
000000000000
000000000000
ENDCHAR
STARTCHAR U+00E0
ENCODING 224
SWIDTH 1000 0
DWIDTH 34 0
BBX 47 40 -6 -8
BITMAP
000000000000
000000000000
000000000000
000000000000
00001ffc0000
00001ffc0000
00003ff80000
00003ff80000
0000003ff800
0000007ff000
0000007ff000
0000007ff000
000fffffe000
000fffffe000
000fffffe000
001fffffc000
00000001fc00
00000001fc00
00000003f800
00000003f800
003ffffff800
007ffffff000
007ffffff000
007ffffff000
0fe000ffe000
0fe000ffe000
0fe000ffe000
1fc001ffc000
01ffffdfc000
01ffffdfc000
03ffffbf8000
03ffffbf8000
000000000000
000000000000
000000000000
000000000000
000000000000
000000000000
000000000000
000000000000
ENDCHAR
STARTCHAR U+00DF
ENCODING 223
SWIDTH 1000 0
DWIDTH 34 0
BBX 47 40 -6 -8
BITMAP
000000000000
000000000000
000000000000
000000000000
00001fffc000
00001fffc000
00003fff8000
00003fff8000
0003f803f800
0007f007f000
0007f007f000
0007f007f000
00fe000fe000
00fe000fe000
00fe000fe000
01fc001fc000
01fdfffc0000
01fdfffc0000
03fbfff80000
03fbfff80000
03f8003f8000
07f0007f0000
07f0007f0000
07f0007f0000
0fefe00fe000
0fefe00fe000
0fefe00fe000
1fdfc01fc000
1fc1fffc0000
1fc1fffc0000
3f83fff80000
3f83fff80000
3f8000000000
7f0000000000
7f0000000000
7f0000000000
000000000000
000000000000
000000000000
000000000000
ENDCHAR
STARTCHAR U+00DE
ENCODING 222
SWIDTH 1000 0
DWIDTH 34 0
BBX 47 40 -6 -8
BITMAP
000000000000
000000000000
000000000000
000000000000
001ffc000000
001ffc000000
003ff8000000
003ff8000000
0003fffff800
0007fffff000
0007fffff000
0007fffff000
000fe000fe00
000fe000fe00
000fe000fe00
001fc001fc00
001fc001fc00
001fc001fc00
003f8003f800
003f8003f800
003f8003f800
007f0007f000
007f0007f000
007f0007f000
00fffffe0000
00fffffe0000
00fffffe0000
01fffffc0000
1ffc00000000
1ffc00000000
3ff800000000
3ff800000000
000000000000
000000000000
000000000000
000000000000
000000000000
000000000000
000000000000
000000000000
ENDCHAR
STARTCHAR U+0178
ENCODING 376
SWIDTH 1000 0
DWIDTH 34 0
BBX 47 40 -6 -8
BITMAP
0000fe00fe00
0000fe00fe00
0000fe00fe00
0001fc01fc00
000000000000
000000000000
000000000000
000000000000
003f80003f80
007f00007f00
007f00007f00
007f00007f00
000fe00fe000
000fe00fe000
000fe00fe000
001fc01fc000
0001fdfc0000
0001fdfc0000
0003fbf80000
0003fbf80000
00003f800000
00007f000000
00007f000000
00007f000000
0000fe000000
0000fe000000
0000fe000000
0001fc000000
0001fc000000
0001fc000000
0003f8000000
0003f8000000
000000000000
000000000000
000000000000
000000000000
000000000000
000000000000
000000000000
000000000000
ENDCHAR
STARTCHAR U+00DC
ENCODING 220
SWIDTH 1000 0
DWIDTH 34 0
BBX 47 40 -6 -8
BITMAP
0000fe00fe00
0000fe00fe00
0000fe00fe00
0001fc01fc00
000000000000
000000000000
000000000000
000000000000
003f80003f80
007f00007f00
007f00007f00
007f00007f00
00fe0000fe00
00fe0000fe00
00fe0000fe00
01fc0001fc00
01fc0001fc00
01fc0001fc00
03f80003f800
03f80003f800
03f80003f800
07f00007f000
07f00007f000
07f00007f000
0fe0000fe000
0fe0000fe000
0fe0000fe000
1fc0001fc000
01fffffc0000
01fffffc0000
03fffff80000
03fffff80000
000000000000
000000000000
000000000000
000000000000
000000000000
000000000000
000000000000
000000000000
ENDCHAR
STARTCHAR U+00DB
ENCODING 219
SWIDTH 1000 0
DWIDTH 34 0
BBX 47 40 -6 -8
BITMAP
000000fe0000
000000fe0000
000000fe0000
000001fc0000
00001fdfc000
00001fdfc000
00003fbf8000
00003fbf8000
003f80003f80
007f00007f00
007f00007f00
007f00007f00
00fe0000fe00
00fe0000fe00
00fe0000fe00
01fc0001fc00
01fc0001fc00
01fc0001fc00
03f80003f800
03f80003f800
03f80003f800
07f00007f000
07f00007f000
07f00007f000
0fe0000fe000
0fe0000fe000
0fe0000fe000
1fc0001fc000
01fffffc0000
01fffffc0000
03fffff80000
03fffff80000
000000000000
000000000000
000000000000
000000000000
000000000000
000000000000
000000000000
000000000000
ENDCHAR
STARTCHAR U+00DA
ENCODING 218
SWIDTH 1000 0
DWIDTH 34 0
BBX 47 40 -6 -8
BITMAP
0000000ffe00
0000000ffe00
0000000ffe00
0000001ffc00
00001ffc0000
00001ffc0000
00003ff80000
00003ff80000
003f80003f80
007f00007f00
007f00007f00
007f00007f00
00fe0000fe00
00fe0000fe00
00fe0000fe00
01fc0001fc00
01fc0001fc00
01fc0001fc00
03f80003f800
03f80003f800
03f80003f800
07f00007f000
07f00007f000
07f00007f000
0fe0000fe000
0fe0000fe000
0fe0000fe000
1fc0001fc000
01fffffc0000
01fffffc0000
03fffff80000
03fffff80000
000000000000
000000000000
000000000000
000000000000
000000000000
000000000000
000000000000
000000000000
ENDCHAR
STARTCHAR U+00D9
ENCODING 217
SWIDTH 1000 0
DWIDTH 34 0
BBX 47 40 -6 -8
BITMAP
0000ffe00000
0000ffe00000
0000ffe00000
0001ffc00000
000001ffc000
000001ffc000
000003ff8000
000003ff8000
003f80003f80
007f00007f00
007f00007f00
007f00007f00
00fe0000fe00
00fe0000fe00
00fe0000fe00
01fc0001fc00
01fc0001fc00
01fc0001fc00
03f80003f800
03f80003f800
03f80003f800
07f00007f000
07f00007f000
07f00007f000
0fe0000fe000
0fe0000fe000
0fe0000fe000
1fc0001fc000
01fffffc0000
01fffffc0000
03fffff80000
03fffff80000
000000000000
000000000000
000000000000
000000000000
000000000000
000000000000
000000000000
000000000000
ENDCHAR
STARTCHAR U+00D8
ENCODING 216
SWIDTH 1000 0
DWIDTH 34 0
BBX 47 40 -6 -8
BITMAP
000000000fe0
000000000fe0
000000000fe0
000000001fc0
0001fffffc00
0001fffffc00
0003fffff800
0003fffff800
003f8003ff80
007f0007ff00
007f0007ff00
007f0007ff00
00fe00fefe00
00fe00fefe00
00fe00fefe00
01fc01fdfc00
01fc1fc1fc00
01fc1fc1fc00
03f83f83f800
03f83f83f800
03fbf803f800
07f7f007f000
07f7f007f000
07f7f007f000
0ffe000fe000
0ffe000fe000
0ffe000fe000
1ffc001fc000
01fffffc0000
01fffffc0000
03fffff80000
03fffff80000
3f8000000000
7f0000000000
7f0000000000
7f0000000000
000000000000
000000000000
000000000000
000000000000
ENDCHAR
STARTCHAR U+0152
ENCODING 338
SWIDTH 1000 0
DWIDTH 34 0
BBX 47 40 -6 -8
BITMAP
000000000000
000000000000
000000000000
000000000000
0001ffdfffc0
0001ffdfffc0
0003ffbfff80
0003ffbfff80
003f83f80000
007f07f00000
007f07f00000
007f07f00000
00fe0fe00000
00fe0fe00000
00fe0fe00000
01fc1fc00000
01fc1fffc000
01fc1fffc000
03f83fff8000
03f83fff8000
03f83f800000
07f07f000000
07f07f000000
07f07f000000
0fe0fe000000
0fe0fe000000
0fe0fe000000
1fc1fc000000
01ffdfffc000
01ffdfffc000
03ffbfff8000
03ffbfff8000
000000000000
000000000000
000000000000
000000000000
000000000000
000000000000
000000000000
000000000000
ENDCHAR
STARTCHAR U+00D6
ENCODING 214
SWIDTH 1000 0
DWIDTH 34 0
BBX 47 40 -6 -8
BITMAP
0000fe00fe00
0000fe00fe00
0000fe00fe00
0001fc01fc00
000000000000
000000000000
000000000000
000000000000
0003fffff800
0007fffff000
0007fffff000
0007fffff000
00fe0000fe00
00fe0000fe00
00fe0000fe00
01fc0001fc00
01fc0001fc00
01fc0001fc00
03f80003f800
03f80003f800
03f80003f800
07f00007f000
07f00007f000
07f00007f000
0fe0000fe000
0fe0000fe000
0fe0000fe000
1fc0001fc000
01fffffc0000
01fffffc0000
03fffff80000
03fffff80000
000000000000
000000000000
000000000000
000000000000
000000000000
000000000000
000000000000
000000000000
ENDCHAR
STARTCHAR U+00D5
ENCODING 213
SWIDTH 1000 0
DWIDTH 34 0
BBX 47 40 -6 -8
BITMAP
0000ffe0fe00
0000ffe0fe00
0000ffe0fe00
0001ffc1fc00
001fc1ffc000
001fc1ffc000
003f83ff8000
003f83ff8000
0003fffff800
0007fffff000
0007fffff000
0007fffff000
00fe0000fe00
00fe0000fe00
00fe0000fe00
01fc0001fc00
01fc0001fc00
01fc0001fc00
03f80003f800
03f80003f800
03f80003f800
07f00007f000
07f00007f000
07f00007f000
0fe0000fe000
0fe0000fe000
0fe0000fe000
1fc0001fc000
01fffffc0000
01fffffc0000
03fffff80000
03fffff80000
000000000000
000000000000
000000000000
000000000000
000000000000
000000000000
000000000000
000000000000
ENDCHAR
STARTCHAR U+00D4
ENCODING 212
SWIDTH 1000 0
DWIDTH 34 0
BBX 47 40 -6 -8
BITMAP
00000fffe000
00000fffe000
00000fffe000
00001fffc000
0001fc01fc00
0001fc01fc00
0003f803f800
0003f803f800
0003fffff800
0007fffff000
0007fffff000
0007fffff000
00fe0000fe00
00fe0000fe00
00fe0000fe00
01fc0001fc00
01fc0001fc00
01fc0001fc00
03f80003f800
03f80003f800
03f80003f800
07f00007f000
07f00007f000
07f00007f000
0fe0000fe000
0fe0000fe000
0fe0000fe000
1fc0001fc000
01fffffc0000
01fffffc0000
03fffff80000
03fffff80000
000000000000
000000000000
000000000000
000000000000
000000000000
000000000000
000000000000
000000000000
ENDCHAR
STARTCHAR U+00D3
ENCODING 211
SWIDTH 1000 0
DWIDTH 34 0
BBX 47 40 -6 -8
BITMAP
000000ffe000
000000ffe000
000000ffe000
000001ffc000
0001ffc00000
0001ffc00000
0003ff800000
0003ff800000
0003fffff800
0007fffff000
0007fffff000
0007fffff000
00fe0000fe00
00fe0000fe00
00fe0000fe00
01fc0001fc00
01fc0001fc00
01fc0001fc00
03f80003f800
03f80003f800
03f80003f800
07f00007f000
07f00007f000
07f00007f000
0fe0000fe000
0fe0000fe000
0fe0000fe000
1fc0001fc000
01fffffc0000
01fffffc0000
03fffff80000
03fffff80000
000000000000
000000000000
000000000000
000000000000
000000000000
000000000000
000000000000
000000000000
ENDCHAR
STARTCHAR U+00D2
ENCODING 210
SWIDTH 1000 0
DWIDTH 34 0
BBX 47 40 -6 -8
BITMAP
00000ffe0000
00000ffe0000
00000ffe0000
00001ffc0000
0000001ffc00
0000001ffc00
0000003ff800
0000003ff800
0003fffff800
0007fffff000
0007fffff000
0007fffff000
00fe0000fe00
00fe0000fe00
00fe0000fe00
01fc0001fc00
01fc0001fc00
01fc0001fc00
03f80003f800
03f80003f800
03f80003f800
07f00007f000
07f00007f000
07f00007f000
0fe0000fe000
0fe0000fe000
0fe0000fe000
1fc0001fc000
01fffffc0000
01fffffc0000
03fffff80000
03fffff80000
000000000000
000000000000
000000000000
000000000000
000000000000
000000000000
000000000000
000000000000
ENDCHAR
STARTCHAR U+00D1
ENCODING 209
SWIDTH 1000 0
DWIDTH 34 0
BBX 47 40 -6 -8
BITMAP
00000ffe0fe0
00000ffe0fe0
00000ffe0fe0
00001ffc1fc0
0001fc1ffc00
0001fc1ffc00
0003f83ff800
0003f83ff800
003ff8003f80
007ff0007f00
007ff0007f00
007ff0007f00
00fefe00fe00
00fefe00fe00
00fefe00fe00
01fdfc01fc00
01fc1fc1fc00
01fc1fc1fc00
03f83f83f800
03f83f83f800
03f803fbf800
07f007f7f000
07f007f7f000
07f007f7f000
0fe000ffe000
0fe000ffe000
0fe000ffe000
1fc001ffc000
1fc0001fc000
1fc0001fc000
3f80003f8000
3f80003f8000
000000000000
000000000000
000000000000
000000000000
000000000000
000000000000
000000000000
000000000000
ENDCHAR
STARTCHAR U+00D0
ENCODING 208
SWIDTH 1000 0
DWIDTH 34 0
BBX 47 40 -6 -8
BITMAP
000000000000
000000000000
000000000000
000000000000
001fffffc000
001fffffc000
003fffff8000
003fffff8000
0003f803f800
0007f007f000
0007f007f000
0007f007f000
000fe000fe00
000fe000fe00
000fe000fe00
001fc001fc00
01ffffc1fc00
01ffffc1fc00
03ffff83f800
03ffff83f800
003f8003f800
007f0007f000
007f0007f000
007f0007f000
00fe00fe0000
00fe00fe0000
00fe00fe0000
01fc01fc0000
1fffffc00000
1fffffc00000
3fffff800000
3fffff800000
000000000000
000000000000
000000000000
000000000000
000000000000
000000000000
000000000000
000000000000
ENDCHAR
STARTCHAR U+00CF
ENCODING 207
SWIDTH 1000 0
DWIDTH 34 0
BBX 47 40 -6 -8
BITMAP
0000fe00fe00
0000fe00fe00
0000fe00fe00
0001fc01fc00
000000000000
000000000000
000000000000
000000000000
0003fffff800
0007fffff000
0007fffff000
0007fffff000
00000fe00000
00000fe00000
00000fe00000
00001fc00000
00001fc00000
00001fc00000
00003f800000
00003f800000
00003f800000
00007f000000
00007f000000
00007f000000
0000fe000000
0000fe000000
0000fe000000
0001fc000000
01fffffc0000
01fffffc0000
03fffff80000
03fffff80000
000000000000
000000000000
000000000000
000000000000
000000000000
000000000000
000000000000
000000000000
ENDCHAR
STARTCHAR U+00CE
ENCODING 206
SWIDTH 1000 0
DWIDTH 34 0
BBX 47 40 -6 -8
BITMAP
00000fffe000
00000fffe000
00000fffe000
00001fffc000
0001fc01fc00
0001fc01fc00
0003f803f800
0003f803f800
0003fffff800
0007fffff000
0007fffff000
0007fffff000
00000fe00000
00000fe00000
00000fe00000
00001fc00000
00001fc00000
00001fc00000
00003f800000
00003f800000
00003f800000
00007f000000
00007f000000
00007f000000
0000fe000000
0000fe000000
0000fe000000
0001fc000000
01fffffc0000
01fffffc0000
03fffff80000
03fffff80000
000000000000
000000000000
000000000000
000000000000
000000000000
000000000000
000000000000
000000000000
ENDCHAR
STARTCHAR U+00CD
ENCODING 205
SWIDTH 1000 0
DWIDTH 34 0
BBX 47 40 -6 -8
BITMAP
000000ffe000
000000ffe000
000000ffe000
000001ffc000
0001ffc00000
0001ffc00000
0003ff800000
0003ff800000
0003fffff800
0007fffff000
0007fffff000
0007fffff000
00000fe00000
00000fe00000
00000fe00000
00001fc00000
00001fc00000
00001fc00000
00003f800000
00003f800000
00003f800000
00007f000000
00007f000000
00007f000000
0000fe000000
0000fe000000
0000fe000000
0001fc000000
01fffffc0000
01fffffc0000
03fffff80000
03fffff80000
000000000000
000000000000
000000000000
000000000000
000000000000
000000000000
000000000000
000000000000
ENDCHAR
STARTCHAR U+00CC
ENCODING 204
SWIDTH 1000 0
DWIDTH 34 0
BBX 47 40 -6 -8
BITMAP
00000ffe0000
00000ffe0000
00000ffe0000
00001ffc0000
0000001ffc00
0000001ffc00
0000003ff800
0000003ff800
0003fffff800
0007fffff000
0007fffff000
0007fffff000
00000fe00000
00000fe00000
00000fe00000
00001fc00000
00001fc00000
00001fc00000
00003f800000
00003f800000
00003f800000
00007f000000
00007f000000
00007f000000
0000fe000000
0000fe000000
0000fe000000
0001fc000000
01fffffc0000
01fffffc0000
03fffff80000
03fffff80000
000000000000
000000000000
000000000000
000000000000
000000000000
000000000000
000000000000
000000000000
ENDCHAR
STARTCHAR U+00CB
ENCODING 203
SWIDTH 1000 0
DWIDTH 34 0
BBX 47 40 -6 -8
BITMAP
0000fe00fe00
0000fe00fe00
0000fe00fe00
0001fc01fc00
000000000000
000000000000
000000000000
000000000000
003fffffff80
007fffffff00
007fffffff00
007fffffff00
00fe00000000
00fe00000000
00fe00000000
01fc00000000
01fffffc0000
01fffffc0000
03fffff80000
03fffff80000
03f800000000
07f000000000
07f000000000
07f000000000
0fe000000000
0fe000000000
0fe000000000
1fc000000000
1fffffffc000
1fffffffc000
3fffffff8000
3fffffff8000
000000000000
000000000000
000000000000
000000000000
000000000000
000000000000
000000000000
000000000000
ENDCHAR
STARTCHAR U+00CA
ENCODING 202
SWIDTH 1000 0
DWIDTH 34 0
BBX 47 40 -6 -8
BITMAP
00000fffe000
00000fffe000
00000fffe000
00001fffc000
0001fc01fc00
0001fc01fc00
0003f803f800
0003f803f800
003fffffff80
007fffffff00
007fffffff00
007fffffff00
00fe00000000
00fe00000000
00fe00000000
01fc00000000
01ffffc00000
01ffffc00000
03ffff800000
03ffff800000
03f800000000
07f000000000
07f000000000
07f000000000
0fe000000000
0fe000000000
0fe000000000
1fc000000000
1fffffffc000
1fffffffc000
3fffffff8000
3fffffff8000
000000000000
000000000000
000000000000
000000000000
000000000000
000000000000
000000000000
000000000000
ENDCHAR
STARTCHAR U+00C9
ENCODING 201
SWIDTH 1000 0
DWIDTH 34 0
BBX 47 40 -6 -8
BITMAP
0000000ffe00
0000000ffe00
0000000ffe00
0000001ffc00
00001ffc0000
00001ffc0000
00003ff80000
00003ff80000
003fffffff80
007fffffff00
007fffffff00
007fffffff00
00fe00000000
00fe00000000
00fe00000000
01fc00000000
01fffffc0000
01fffffc0000
03fffff80000
03fffff80000
03f800000000
07f000000000
07f000000000
07f000000000
0fe000000000
0fe000000000
0fe000000000
1fc000000000
1fffffffc000
1fffffffc000
3fffffff8000
3fffffff8000
000000000000
000000000000
000000000000
000000000000
000000000000
000000000000
000000000000
000000000000
ENDCHAR
STARTCHAR U+00C8
ENCODING 200
SWIDTH 1000 0
DWIDTH 34 0
BBX 47 40 -6 -8
BITMAP
0000ffe00000
0000ffe00000
0000ffe00000
0001ffc00000
000001ffc000
000001ffc000
000003ff8000
000003ff8000
003fffffff80
007fffffff00
007fffffff00
007fffffff00
00fe00000000
00fe00000000
00fe00000000
01fc00000000
01fffffc0000
01fffffc0000
03fffff80000
03fffff80000
03f800000000
07f000000000
07f000000000
07f000000000
0fe000000000
0fe000000000
0fe000000000
1fc000000000
1fffffffc000
1fffffffc000
3fffffff8000
3fffffff8000
000000000000
000000000000
000000000000
000000000000
000000000000
000000000000
000000000000
000000000000
ENDCHAR
STARTCHAR U+00C7
ENCODING 199
SWIDTH 1000 0
DWIDTH 34 0
BBX 47 40 -6 -8
BITMAP
000000000000
000000000000
000000000000
000000000000
00001ffffc00
00001ffffc00
00003ffff800
00003ffff800
0003f8003f80
0007f0007f00
0007f0007f00
0007f0007f00
00fe00000000
00fe00000000
00fe00000000
01fc00000000
01fc00000000
01fc00000000
03f800000000
03f800000000
03f800000000
07f000000000
07f000000000
07f000000000
00fe000fe000
00fe000fe000
00fe000fe000
01fc001fc000
001ffffc0000
001ffffc0000
003ffff80000
003ffff80000
00003f800000
00007f000000
00007f000000
00007f000000
00fffe000000
00fffe000000
00fffe000000
01fffc000000
ENDCHAR
STARTCHAR U+00C6
ENCODING 198
SWIDTH 1000 0
DWIDTH 34 0
BBX 47 40 -6 -8
BITMAP
000000000000
000000000000
000000000000
000000000000
00001fffffc0
00001fffffc0
00003fffff80
00003fffff80
0003fbf80000
0007f7f00000
0007f7f00000
0007f7f00000
00fe0fe00000
00fe0fe00000
00fe0fe00000
01fc1fc00000
01fc1fffc000
01fc1fffc000
03f83fff8000
03f83fff8000
03ffff800000
07ffff000000
07ffff000000
07ffff000000
0fe0fe000000
0fe0fe000000
0fe0fe000000
1fc1fc000000
1fc1ffffc000
1fc1ffffc000
3f83ffff8000
3f83ffff8000
000000000000
000000000000
000000000000
000000000000
000000000000
000000000000
000000000000
000000000000
ENDCHAR
STARTCHAR U+00C5
ENCODING 197
SWIDTH 1000 0
DWIDTH 34 0
BBX 47 40 -6 -8
BITMAP
00000fffe000
00000fffe000
00000fffe000
00001fffc000
0001fc01fc00
0001fc01fc00
0003f803f800
0003f803f800
00003fff8000
00007fff0000
00007fff0000
00007fff0000
0000fffe0000
0000fffe0000
0000fffe0000
0001fffc0000
001fc01fc000
001fc01fc000
003f803f8000
003f803f8000
03fffffff800
07fffffff000
07fffffff000
07fffffff000
0fe0000fe000
0fe0000fe000
0fe0000fe000
1fc0001fc000
1fc0001fc000
1fc0001fc000
3f80003f8000
3f80003f8000
000000000000
000000000000
000000000000
000000000000
000000000000
000000000000
000000000000
000000000000
ENDCHAR
STARTCHAR U+00C4
ENCODING 196
SWIDTH 1000 0
DWIDTH 34 0
BBX 47 40 -6 -8
BITMAP
0000fe00fe00
0000fe00fe00
0000fe00fe00
0001fc01fc00
000000000000
000000000000
000000000000
000000000000
000003f80000
000007f00000
000007f00000
000007f00000
0000fefe0000
0000fefe0000
0000fefe0000
0001fdfc0000
001fc01fc000
001fc01fc000
003f803f8000
003f803f8000
03fffffff800
07fffffff000
07fffffff000
07fffffff000
0fe0000fe000
0fe0000fe000
0fe0000fe000
1fc0001fc000
1fc0001fc000
1fc0001fc000
3f80003f8000
3f80003f8000
000000000000
000000000000
000000000000
000000000000
000000000000
000000000000
000000000000
000000000000
ENDCHAR
STARTCHAR U+00C3
ENCODING 195
SWIDTH 1000 0
DWIDTH 34 0
BBX 47 40 -6 -8
BITMAP
00000ffe0fe0
00000ffe0fe0
00000ffe0fe0
00001ffc1fc0
0001fc1ffc00
0001fc1ffc00
0003f83ff800
0003f83ff800
000003f80000
000007f00000
000007f00000
000007f00000
0000fefe0000
0000fefe0000
0000fefe0000
0001fdfc0000
001fc01fc000
001fc01fc000
003f803f8000
003f803f8000
03fffffff800
07fffffff000
07fffffff000
07fffffff000
0fe0000fe000
0fe0000fe000
0fe0000fe000
1fc0001fc000
1fc0001fc000
1fc0001fc000
3f80003f8000
3f80003f8000
000000000000
000000000000
000000000000
000000000000
000000000000
000000000000
000000000000
000000000000
ENDCHAR
STARTCHAR U+00C2
ENCODING 194
SWIDTH 1000 0
DWIDTH 34 0
BBX 47 40 -6 -8
BITMAP
00000fffe000
00000fffe000
00000fffe000
00001fffc000
0001fc01fc00
0001fc01fc00
0003f803f800
0003f803f800
000003f80000
000007f00000
000007f00000
000007f00000
0000fefe0000
0000fefe0000
0000fefe0000
0001fdfc0000
001fc01fc000
001fc01fc000
003f803f8000
003f803f8000
03fffffff800
07fffffff000
07fffffff000
07fffffff000
0fe0000fe000
0fe0000fe000
0fe0000fe000
1fc0001fc000
1fc0001fc000
1fc0001fc000
3f80003f8000
3f80003f8000
000000000000
000000000000
000000000000
000000000000
000000000000
000000000000
000000000000
000000000000
ENDCHAR
STARTCHAR U+00C1
ENCODING 193
SWIDTH 1000 0
DWIDTH 34 0
BBX 47 40 -6 -8
BITMAP
000000ffe000
000000ffe000
000000ffe000
000001ffc000
0001ffc00000
0001ffc00000
0003ff800000
0003ff800000
000003f80000
000007f00000
000007f00000
000007f00000
0000fefe0000
0000fefe0000
0000fefe0000
0001fdfc0000
001fc01fc000
001fc01fc000
003f803f8000
003f803f8000
03fffffff800
07fffffff000
07fffffff000
07fffffff000
0fe0000fe000
0fe0000fe000
0fe0000fe000
1fc0001fc000
1fc0001fc000
1fc0001fc000
3f80003f8000
3f80003f8000
000000000000
000000000000
000000000000
000000000000
000000000000
000000000000
000000000000
000000000000
ENDCHAR
STARTCHAR U+00C0
ENCODING 192
SWIDTH 1000 0
DWIDTH 34 0
BBX 47 40 -6 -8
BITMAP
00000ffe0000
00000ffe0000
00000ffe0000
00001ffc0000
0000001ffc00
0000001ffc00
0000003ff800
0000003ff800
000003f80000
000007f00000
000007f00000
000007f00000
0000fefe0000
0000fefe0000
0000fefe0000
0001fdfc0000
001fc01fc000
001fc01fc000
003f803f8000
003f803f8000
03fffffff800
07fffffff000
07fffffff000
07fffffff000
0fe0000fe000
0fe0000fe000
0fe0000fe000
1fc0001fc000
1fc0001fc000
1fc0001fc000
3f80003f8000
3f80003f8000
000000000000
000000000000
000000000000
000000000000
000000000000
000000000000
000000000000
000000000000
ENDCHAR
STARTCHAR U+00BF
ENCODING 191
SWIDTH 1000 0
DWIDTH 34 0
BBX 47 40 -6 -8
BITMAP
000000000000
000000000000
000000000000
000000000000
000001fc0000
000001fc0000
000003f80000
000003f80000
000000000000
000000000000
000000000000
000000000000
00000fe00000
00000fe00000
00000fe00000
00001fc00000
00001fc00000
00001fc00000
00003f800000
00003f800000
003ff8000000
007ff0000000
007ff0000000
007ff0000000
0fe0000fe000
0fe0000fe000
0fe0000fe000
1fc0001fc000
01fffffc0000
01fffffc0000
03fffff80000
03fffff80000
000000000000
000000000000
000000000000
000000000000
000000000000
000000000000
000000000000
000000000000
ENDCHAR
STARTCHAR U+00BE
ENCODING 190
SWIDTH 1000 0
DWIDTH 34 0
BBX 47 40 -6 -8
BITMAP
000ffffe0000
000ffffe0000
000ffffe0000
001ffffc0000
000001fc0000
000001fc0000
000003f80000
000003f80000
0003ff83f800
0007ff07f000
0007ff07f000
0007ff07f000
00000ffe0000
00000ffe0000
00000ffe0000
00001ffc0000
01ffffc00000
01ffffc00000
03ffff800000
03ffff800000
0003f83f8000
0007f07f0000
0007f07f0000
0007f07f0000
00fe0ffe0000
00fe0ffe0000
00fe0ffe0000
01fc1ffc0000
1fc1fdfc0000
1fc1fdfc0000
3f83fbf80000
3f83fbf80000
003fffff8000
007fffff0000
007fffff0000
007fffff0000
00000fe00000
00000fe00000
00000fe00000
00001fc00000
ENDCHAR
STARTCHAR U+00BD
ENCODING 189
SWIDTH 1000 0
DWIDTH 34 0
BBX 47 40 -6 -8
BITMAP
000000000000
000000000000
000000000000
000000000000
0001fc000000
0001fc000000
0003f8000000
0003f8000000
003ff803f800
007ff007f000
007ff007f000
007ff007f000
000fe0fe0000
000fe0fe0000
000fe0fe0000
001fc1fc0000
001fdfc00000
001fdfc00000
003fbf800000
003fbf800000
0003fbff8000
0007f7ff0000
0007f7ff0000
0007f7ff0000
00fefe0fe000
00fefe0fe000
00fefe0fe000
01fdfc1fc000
1fc001fc0000
1fc001fc0000
3f8003f80000
3f8003f80000
00003f800000
00007f000000
00007f000000
00007f000000
000ffffe0000
000ffffe0000
000ffffe0000
001ffffc0000
ENDCHAR
STARTCHAR U+00BC
ENCODING 188
SWIDTH 1000 0
DWIDTH 34 0
BBX 47 40 -6 -8
BITMAP
000000000000
000000000000
000000000000
000000000000
0001fc000000
0001fc000000
0003f8000000
0003f8000000
003ff803f800
007ff007f000
007ff007f000
007ff007f000
000fe0fe0000
000fe0fe0000
000fe0fe0000
001fc1fc0000
001fdfc00000
001fdfc00000
003fbf800000
003fbf800000
0003f83f8000
0007f07f0000
0007f07f0000
0007f07f0000
00fe0ffe0000
00fe0ffe0000
00fe0ffe0000
01fc1ffc0000
1fc1fdfc0000
1fc1fdfc0000
3f83fbf80000
3f83fbf80000
003fffff8000
007fffff0000
007fffff0000
007fffff0000
00000fe00000
00000fe00000
00000fe00000
00001fc00000
ENDCHAR
STARTCHAR U+00BB
ENCODING 187
SWIDTH 1000 0
DWIDTH 34 0
BBX 47 40 -6 -8
BITMAP
000000000000
000000000000
000000000000
000000000000
001fc1fc0000
001fc1fc0000
003f83f80000
003f83f80000
0003f83f8000
0007f07f0000
0007f07f0000
0007f07f0000
0000fe0fe000
0000fe0fe000
0000fe0fe000
0001fc1fc000
00001fc1fc00
00001fc1fc00
00003f83f800
00003f83f800
0003f83f8000
0007f07f0000
0007f07f0000
0007f07f0000
00fe0fe00000
00fe0fe00000
00fe0fe00000
01fc1fc00000
1fc1fc000000
1fc1fc000000
3f83f8000000
3f83f8000000
000000000000
000000000000
000000000000
000000000000
000000000000
000000000000
000000000000
000000000000
ENDCHAR
STARTCHAR U+00BA
ENCODING 186
SWIDTH 1000 0
DWIDTH 34 0
BBX 47 40 -6 -8
BITMAP
000000000000
000000000000
000000000000
000000000000
0001fffffc00
0001fffffc00
0003fffff800
0003fffff800
003f80003f80
007f00007f00
007f00007f00
007f00007f00
00fe0000fe00
00fe0000fe00
00fe0000fe00
01fc0001fc00
01fc0001fc00
01fc0001fc00
03f80003f800
03f80003f800
003fffff8000
007fffff0000
007fffff0000
007fffff0000
000000000000
000000000000
000000000000
000000000000
1fffffffc000
1fffffffc000
3fffffff8000
3fffffff8000
000000000000
000000000000
000000000000
000000000000
000000000000
000000000000
000000000000
000000000000
ENDCHAR
STARTCHAR U+00B9
ENCODING 185
SWIDTH 1000 0
DWIDTH 34 0
BBX 47 40 -6 -8
BITMAP
000000fe0000
000000fe0000
000000fe0000
000001fc0000
00001ffc0000
00001ffc0000
00003ff80000
00003ff80000
000003f80000
000007f00000
000007f00000
000007f00000
00000fe00000
00000fe00000
00000fe00000
00001fc00000
0001fffc0000
0001fffc0000
0003fff80000
0003fff80000
000000000000
000000000000
000000000000
000000000000
000000000000
000000000000
000000000000
000000000000
000000000000
000000000000
000000000000
000000000000
000000000000
000000000000
000000000000
000000000000
000000000000
000000000000
000000000000
000000000000
ENDCHAR
STARTCHAR U+00B8
ENCODING 184
SWIDTH 1000 0
DWIDTH 34 0
BBX 47 40 -6 -8
BITMAP
000000000000
000000000000
000000000000
000000000000
000000000000
000000000000
000000000000
000000000000
000000000000
000000000000
000000000000
000000000000
000000000000
000000000000
000000000000
000000000000
000000000000
000000000000
000000000000
000000000000
000000000000
000000000000
000000000000
000000000000
000000000000
000000000000
000000000000
000000000000
000000000000
000000000000
000000000000
000000000000
00003f800000
00007f000000
00007f000000
00007f000000
00fffe000000
00fffe000000
00fffe000000
01fffc000000
ENDCHAR
STARTCHAR U+2022
ENCODING 8226
SWIDTH 1000 0
DWIDTH 34 0
BBX 47 40 -6 -8
BITMAP
000000000000
000000000000
000000000000
000000000000
000000000000
000000000000
000000000000
000000000000
000000000000
000000000000
000000000000
000000000000
0000ffe00000
0000ffe00000
0000ffe00000
0001ffc00000
0001ffc00000
0001ffc00000
0003ff800000
0003ff800000
000000000000
000000000000
000000000000
000000000000
000000000000
000000000000
000000000000
000000000000
000000000000
000000000000
000000000000
000000000000
000000000000
000000000000
000000000000
000000000000
000000000000
000000000000
000000000000
000000000000
ENDCHAR
STARTCHAR U+00B6
ENCODING 182
SWIDTH 1000 0
DWIDTH 34 0
BBX 47 40 -6 -8
BITMAP
000000000000
000000000000
000000000000
000000000000
0001ffffffc0
0001ffffffc0
0003ffffff80
0003ffffff80
003ff83fbf80
007ff07f7f00
007ff07f7f00
007ff07f7f00
00ffe0fefe00
00ffe0fefe00
00ffe0fefe00
01ffc1fdfc00
001ffffffc00
001ffffffc00
003ffffff800
003ffffff800
000003fbf800
000007f7f000
000007f7f000
000007f7f000
00000fefe000
00000fefe000
00000fefe000
00001fdfc000
00001fdfc000
00001fdfc000
00003fbf8000
00003fbf8000
000000000000
000000000000
000000000000
000000000000
000000000000
000000000000
000000000000
000000000000
ENDCHAR
STARTCHAR U+00B5
ENCODING 181
SWIDTH 1000 0
DWIDTH 34 0
BBX 47 40 -6 -8
BITMAP
000000000000
000000000000
000000000000
000000000000
000000000000
000000000000
000000000000
000000000000
000000000000
000000000000
000000000000
000000000000
000fe000fe00
000fe000fe00
000fe000fe00
001fc001fc00
001fc001fc00
001fc001fc00
003f8003f800
003f8003f800
003f8003f800
007f0007f000
007f0007f000
007f0007f000
00ffe0ffe000
00ffe0ffe000
00ffe0ffe000
01ffc1ffc000
01fdffdfc000
01fdffdfc000
03fbffbf8000
03fbffbf8000
03f800000000
07f000000000
07f000000000
07f000000000
fe0000000000
fe0000000000
fe0000000000
fc0000000000
ENDCHAR
STARTCHAR U+00B4
ENCODING 180
SWIDTH 1000 0
DWIDTH 34 0
BBX 47 40 -6 -8
BITMAP
000000000000
000000000000
000000000000
000000000000
0000001ffc00
0000001ffc00
0000003ff800
0000003ff800
0000003f8000
0000007f0000
0000007f0000
0000007f0000
00000fe00000
00000fe00000
00000fe00000
00001fc00000
000000000000
000000000000
000000000000
000000000000
000000000000
000000000000
000000000000
000000000000
000000000000
000000000000
000000000000
000000000000
000000000000
000000000000
000000000000
000000000000
000000000000
000000000000
000000000000
000000000000
000000000000
000000000000
000000000000
000000000000
ENDCHAR
STARTCHAR U+00B3
ENCODING 179
SWIDTH 1000 0
DWIDTH 34 0
BBX 47 40 -6 -8
BITMAP
0000fffffe00
0000fffffe00
0000fffffe00
0001fffffc00
00000001fc00
00000001fc00
00000003f800
00000003f800
000003ff8000
000007ff0000
000007ff0000
000007ff0000
0000000fe000
0000000fe000
0000000fe000
0000001fc000
001ffffc0000
001ffffc0000
003ffff80000
003ffff80000
000000000000
000000000000
000000000000
000000000000
000000000000
000000000000
000000000000
000000000000
000000000000
000000000000
000000000000
000000000000
000000000000
000000000000
000000000000
000000000000
000000000000
000000000000
000000000000
000000000000
ENDCHAR
STARTCHAR U+00B2
ENCODING 178
SWIDTH 1000 0
DWIDTH 34 0
BBX 47 40 -6 -8
BITMAP
00000fffe000
00000fffe000
00000fffe000
00001fffc000
0001fc01fc00
0001fc01fc00
0003f803f800
0003f803f800
000003ff8000
000007ff0000
000007ff0000
000007ff0000
0000fe000000
0000fe000000
0000fe000000
0001fc000000
001fffffc000
001fffffc000
003fffff8000
003fffff8000
000000000000
000000000000
000000000000
000000000000
000000000000
000000000000
000000000000
000000000000
000000000000
000000000000
000000000000
000000000000
000000000000
000000000000
000000000000
000000000000
000000000000
000000000000
000000000000
000000000000
ENDCHAR
STARTCHAR U+00AF
ENCODING 175
SWIDTH 1000 0
DWIDTH 34 0
BBX 47 40 -6 -8
BITMAP
0000fffffe00
0000fffffe00
0000fffffe00
0001fffffc00
000000000000
000000000000
000000000000
000000000000
000000000000
000000000000
000000000000
000000000000
000000000000
000000000000
000000000000
000000000000
000000000000
000000000000
000000000000
000000000000
000000000000
000000000000
000000000000
000000000000
000000000000
000000000000
000000000000
000000000000
000000000000
000000000000
000000000000
000000000000
000000000000
000000000000
000000000000
000000000000
000000000000
000000000000
000000000000
000000000000
ENDCHAR
STARTCHAR U+00AE
ENCODING 174
SWIDTH 1000 0
DWIDTH 34 0
BBX 47 40 -6 -8
BITMAP
000000000000
000000000000
000000000000
000000000000
00001fffc000
00001fffc000
00003fff8000
00003fff8000
0003f803f800
0007f007f000
0007f007f000
0007f007f000
00fefffefe00
00fefffefe00
00fefffefe00
01fdfffdfc00
01fdfc1ffc00
01fdfc1ffc00
03fbf83ff800
03fbf83ff800
03fbfffbf800
07f7fff7f000
07f7fff7f000
07f7fff7f000
0feffe0fe000
0feffe0fe000
0feffe0fe000
1fdffc1fc000
01ffdffc0000
01ffdffc0000
03ffbff80000
03ffbff80000
003fff800000
007fff000000
007fff000000
007fff000000
000000000000
000000000000
000000000000
000000000000
ENDCHAR
STARTCHAR U+00D7
ENCODING 215
SWIDTH 1000 0
DWIDTH 34 0
BBX 47 40 -6 -8
BITMAP
000000000000
000000000000
000000000000
000000000000
000000000000
000000000000
000000000000
000000000000
0003f803f800
0007f007f000
0007f007f000
0007f007f000
0000fefe0000
0000fefe0000
0000fefe0000
0001fdfc0000
00001fc00000
00001fc00000
00003f800000
00003f800000
0003fbf80000
0007f7f00000
0007f7f00000
0007f7f00000
00fe00fe0000
00fe00fe0000
00fe00fe0000
01fc01fc0000
000000000000
000000000000
000000000000
000000000000
000000000000
000000000000
000000000000
000000000000
000000000000
000000000000
000000000000
000000000000
ENDCHAR
STARTCHAR U+00AC
ENCODING 172
SWIDTH 1000 0
DWIDTH 34 0
BBX 47 40 -6 -8
BITMAP
000000000000
000000000000
000000000000
000000000000
000000000000
000000000000
000000000000
000000000000
000000000000
000000000000
000000000000
000000000000
000000000000
000000000000
000000000000
000000000000
000000000000
000000000000
000000000000
000000000000
03fffffff800
07fffffff000
07fffffff000
07fffffff000
0000000fe000
0000000fe000
0000000fe000
0000001fc000
0000001fc000
0000001fc000
0000003f8000
0000003f8000
000000000000
000000000000
000000000000
000000000000
000000000000
000000000000
000000000000
000000000000
ENDCHAR
STARTCHAR U+00AB
ENCODING 171
SWIDTH 1000 0
DWIDTH 34 0
BBX 47 40 -6 -8
BITMAP
000000000000
000000000000
000000000000
000000000000
000001fc1fc0
000001fc1fc0
000003f83f80
000003f83f80
00003f83f800
00007f07f000
00007f07f000
00007f07f000
000fe0fe0000
000fe0fe0000
000fe0fe0000
001fc1fc0000
01fc1fc00000
01fc1fc00000
03f83f800000
03f83f800000
003f83f80000
007f07f00000
007f07f00000
007f07f00000
000fe0fe0000
000fe0fe0000
000fe0fe0000
001fc1fc0000
0001fc1fc000
0001fc1fc000
0003f83f8000
0003f83f8000
000000000000
000000000000
000000000000
000000000000
000000000000
000000000000
000000000000
000000000000
ENDCHAR
STARTCHAR U+00AA
ENCODING 170
SWIDTH 1000 0
DWIDTH 34 0
BBX 47 40 -6 -8
BITMAP
000000000000
000000000000
000000000000
000000000000
0001fffffc00
0001fffffc00
0003fffff800
0003fffff800
000000003f80
000000007f00
000000007f00
000000007f00
000ffffffe00
000ffffffe00
000ffffffe00
001ffffffc00
01fc001ffc00
01fc001ffc00
03f8003ff800
03f8003ff800
003ffffbf800
007ffff7f000
007ffff7f000
007ffff7f000
000000000000
000000000000
000000000000
000000000000
1fffffffc000
1fffffffc000
3fffffff8000
3fffffff8000
000000000000
000000000000
000000000000
000000000000
000000000000
000000000000
000000000000
000000000000
ENDCHAR
STARTCHAR U+00A9
ENCODING 169
SWIDTH 1000 0
DWIDTH 34 0
BBX 47 40 -6 -8
BITMAP
000000000000
000000000000
000000000000
000000000000
00001fffc000
00001fffc000
00003fff8000
00003fff8000
0003f803f800
0007f007f000
0007f007f000
0007f007f000
00fe0ffefe00
00fe0ffefe00
00fe0ffefe00
01fc1ffdfc00
01fdfc01fc00
01fdfc01fc00
03fbf803f800
03fbf803f800
03fbf803f800
07f7f007f000
07f7f007f000
07f7f007f000
0fe0ffefe000
0fe0ffefe000
0fe0ffefe000
1fc1ffdfc000
01fc01fc0000
01fc01fc0000
03f803f80000
03f803f80000
003fff800000
007fff000000
007fff000000
007fff000000
000000000000
000000000000
000000000000
000000000000
ENDCHAR
STARTCHAR U+00A4
ENCODING 164
SWIDTH 1000 0
DWIDTH 34 0
BBX 47 40 -6 -8
BITMAP
000000000000
000000000000
000000000000
000000000000
000000000000
000000000000
000000000000
000000000000
003f80003f80
007f00007f00
007f00007f00
007f00007f00
000fffffe000
000fffffe000
000fffffe000
001fffffc000
001fc01fc000
001fc01fc000
003f803f8000
003f803f8000
003fffff8000
007fffff0000
007fffff0000
007fffff0000
0fe0000fe000
0fe0000fe000
0fe0000fe000
1fc0001fc000
000000000000
000000000000
000000000000
000000000000
000000000000
000000000000
000000000000
000000000000
000000000000
000000000000
000000000000
000000000000
ENDCHAR
STARTCHAR U+00A7
ENCODING 167
SWIDTH 1000 0
DWIDTH 34 0
BBX 47 40 -6 -8
BITMAP
000000000000
000000000000
000000000000
000000000000
00001ffffc00
00001ffffc00
00003ffff800
00003ffff800
0003f8000000
0007f0000000
0007f0000000
0007f0000000
0000fffe0000
0000fffe0000
0000fffe0000
0001fffc0000
001fc01fc000
001fc01fc000
003f803f8000
003f803f8000
0003fff80000
0007fff00000
0007fff00000
0007fff00000
000000fe0000
000000fe0000
000000fe0000
000001fc0000
01ffffc00000
01ffffc00000
03ffff800000
03ffff800000
000000000000
000000000000
000000000000
000000000000
000000000000
000000000000
000000000000
000000000000
ENDCHAR
STARTCHAR U+00A6
ENCODING 166
SWIDTH 1000 0
DWIDTH 34 0
BBX 47 40 -6 -8
BITMAP
000000000000
000000000000
000000000000
000000000000
000001fc0000
000001fc0000
000003f80000
000003f80000
000003f80000
000007f00000
000007f00000
000007f00000
00000fe00000
00000fe00000
00000fe00000
00001fc00000
000000000000
000000000000
000000000000
000000000000
00003f800000
00007f000000
00007f000000
00007f000000
0000fe000000
0000fe000000
0000fe000000
0001fc000000
0001fc000000
0001fc000000
0003f8000000
0003f8000000
000000000000
000000000000
000000000000
000000000000
000000000000
000000000000
000000000000
000000000000
ENDCHAR
STARTCHAR U+00A5
ENCODING 165
SWIDTH 1000 0
DWIDTH 34 0
BBX 47 40 -6 -8
BITMAP
000000000000
000000000000
000000000000
000000000000
001fc0001fc0
001fc0001fc0
003f80003f80
003f80003f80
0003f803f800
0007f007f000
0007f007f000
0007f007f000
0000fefe0000
0000fefe0000
0000fefe0000
0001fdfc0000
00001fc00000
00001fc00000
00003f800000
00003f800000
03fffffff800
07fffffff000
07fffffff000
07fffffff000
0000fe000000
0000fe000000
0000fe000000
0001fc000000
0001fc000000
0001fc000000
0003f8000000
0003f8000000
000000000000
000000000000
000000000000
000000000000
000000000000
000000000000
000000000000
000000000000
ENDCHAR
STARTCHAR U+00A8
ENCODING 168
SWIDTH 1000 0
DWIDTH 34 0
BBX 47 40 -6 -8
BITMAP
0000fe00fe00
0000fe00fe00
0000fe00fe00
0001fc01fc00
000000000000
000000000000
000000000000
000000000000
000000000000
000000000000
000000000000
000000000000
000000000000
000000000000
000000000000
000000000000
000000000000
000000000000
000000000000
000000000000
000000000000
000000000000
000000000000
000000000000
000000000000
000000000000
000000000000
000000000000
000000000000
000000000000
000000000000
000000000000
000000000000
000000000000
000000000000
000000000000
000000000000
000000000000
000000000000
000000000000
ENDCHAR
STARTCHAR U+00A2
ENCODING 162
SWIDTH 1000 0
DWIDTH 34 0
BBX 47 40 -6 -8
BITMAP
000000000000
000000000000
000000000000
000000000000
000000000000
000000000000
000000000000
000000000000
000003f80000
000007f00000
000007f00000
000007f00000
000fffffe000
000fffffe000
000fffffe000
001fffffc000
01fc1fc1fc00
01fc1fc1fc00
03f83f83f800
03f83f83f800
03f83f800000
07f07f000000
07f07f000000
07f07f000000
0fe0fe0fe000
0fe0fe0fe000
0fe0fe0fe000
1fc1fc1fc000
01fffffc0000
01fffffc0000
03fffff80000
03fffff80000
0003f8000000
0007f0000000
0007f0000000
0007f0000000
000000000000
000000000000
000000000000
000000000000
ENDCHAR
STARTCHAR U+00A1
ENCODING 161
SWIDTH 1000 0
DWIDTH 34 0
BBX 47 40 -6 -8
BITMAP
000000000000
000000000000
000000000000
000000000000
000001fc0000
000001fc0000
000003f80000
000003f80000
000000000000
000000000000
000000000000
000000000000
00000fe00000
00000fe00000
00000fe00000
00001fc00000
00001fc00000
00001fc00000
00003f800000
00003f800000
00003f800000
00007f000000
00007f000000
00007f000000
0000fe000000
0000fe000000
0000fe000000
0001fc000000
0001fc000000
0001fc000000
0003f8000000
0003f8000000
000000000000
000000000000
000000000000
000000000000
000000000000
000000000000
000000000000
000000000000
ENDCHAR
STARTCHAR U+201F
ENCODING 8223
SWIDTH 1000 0
DWIDTH 34 0
BBX 47 40 -6 -8
BITMAP
000000000000
000000000000
000000000000
000000000000
0001ffdffc00
0001ffdffc00
0003ffbff800
0003ffbff800
0003f83f8000
0007f07f0000
0007f07f0000
0007f07f0000
0000fe0fe000
0000fe0fe000
0000fe0fe000
0001fc1fc000
000000000000
000000000000
000000000000
000000000000
000000000000
000000000000
000000000000
000000000000
000000000000
000000000000
000000000000
000000000000
000000000000
000000000000
000000000000
000000000000
000000000000
000000000000
000000000000
000000000000
000000000000
000000000000
000000000000
000000000000
ENDCHAR
STARTCHAR U+201E
ENCODING 8222
SWIDTH 1000 0
DWIDTH 34 0
BBX 47 40 -6 -8
BITMAP
000000000000
000000000000
000000000000
000000000000
000000000000
000000000000
000000000000
000000000000
000000000000
000000000000
000000000000
000000000000
000000000000
000000000000
000000000000
000000000000
000000000000
000000000000
000000000000
000000000000
000000000000
000000000000
000000000000
000000000000
000000000000
000000000000
000000000000
000000000000
01fc1fc00000
01fc1fc00000
03f83f800000
03f83f800000
03f83f800000
07f07f000000
07f07f000000
07f07f000000
000000000000
000000000000
000000000000
000000000000
ENDCHAR
STARTCHAR U+201D
ENCODING 8221
SWIDTH 1000 0
DWIDTH 34 0
BBX 47 40 -6 -8
BITMAP
000000000000
000000000000
000000000000
000000000000
0001ffc1ffc0
0001ffc1ffc0
0003ff83ff80
0003ff83ff80
00003f803f80
00007f007f00
00007f007f00
00007f007f00
000fe00fe000
000fe00fe000
000fe00fe000
001fc01fc000
000000000000
000000000000
000000000000
000000000000
000000000000
000000000000
000000000000
000000000000
000000000000
000000000000
000000000000
000000000000
000000000000
000000000000
000000000000
000000000000
000000000000
000000000000
000000000000
000000000000
000000000000
000000000000
000000000000
000000000000
ENDCHAR
STARTCHAR U+201C
ENCODING 8220
SWIDTH 1000 0
DWIDTH 34 0
BBX 47 40 -6 -8
BITMAP
000000000000
000000000000
000000000000
000000000000
00001fc01fc0
00001fc01fc0
00003f803f80
00003f803f80
0003f803f800
0007f007f000
0007f007f000
0007f007f000
000ffe0ffe00
000ffe0ffe00
000ffe0ffe00
001ffc1ffc00
000000000000
000000000000
000000000000
000000000000
000000000000
000000000000
000000000000
000000000000
000000000000
000000000000
000000000000
000000000000
000000000000
000000000000
000000000000
000000000000
000000000000
000000000000
000000000000
000000000000
000000000000
000000000000
000000000000
000000000000
ENDCHAR
STARTCHAR U+201B
ENCODING 8219
SWIDTH 1000 0
DWIDTH 34 0
BBX 47 40 -6 -8
BITMAP
000000000000
000000000000
000000000000
000000000000
000001fc0000
000001fc0000
000003f80000
000003f80000
000003f80000
000007f00000
000007f00000
000007f00000
00000fe00000
00000fe00000
00000fe00000
00001fc00000
000000000000
000000000000
000000000000
000000000000
000000000000
000000000000
000000000000
000000000000
000000000000
000000000000
000000000000
000000000000
000000000000
000000000000
000000000000
000000000000
000000000000
000000000000
000000000000
000000000000
000000000000
000000000000
000000000000
000000000000
ENDCHAR
STARTCHAR U+201A
ENCODING 8218
SWIDTH 1000 0
DWIDTH 34 0
BBX 47 40 -6 -8
BITMAP
000000000000
000000000000
000000000000
000000000000
000000000000
000000000000
000000000000
000000000000
000000000000
000000000000
000000000000
000000000000
000000000000
000000000000
000000000000
000000000000
000000000000
000000000000
000000000000
000000000000
00003f800000
00007f000000
00007f000000
00007f000000
0000fe000000
0000fe000000
0000fe000000
0001fc000000
0001fc000000
0001fc000000
0003f8000000
0003f8000000
000000000000
000000000000
000000000000
000000000000
000000000000
000000000000
000000000000
000000000000
ENDCHAR
STARTCHAR U+2019
ENCODING 8217
SWIDTH 1000 0
DWIDTH 34 0
BBX 47 40 -6 -8
BITMAP
000000000000
000000000000
000000000000
000000000000
0001ffc00000
0001ffc00000
0003ff800000
0003ff800000
00003f800000
00007f000000
00007f000000
00007f000000
000fe0000000
000fe0000000
000fe0000000
001fc0000000
000000000000
000000000000
000000000000
000000000000
000000000000
000000000000
000000000000
000000000000
000000000000
000000000000
000000000000
000000000000
000000000000
000000000000
000000000000
000000000000
000000000000
000000000000
000000000000
000000000000
000000000000
000000000000
000000000000
000000000000
ENDCHAR
STARTCHAR U+2018
ENCODING 8216
SWIDTH 1000 0
DWIDTH 34 0
BBX 47 40 -6 -8
BITMAP
000000000000
000000000000
000000000000
000000000000
000000001fc0
000000001fc0
000000003f80
000000003f80
00000003f800
00000007f000
00000007f000
00000007f000
0000000ffe00
0000000ffe00
0000000ffe00
0000001ffc00
000000000000
000000000000
000000000000
000000000000
000000000000
000000000000
000000000000
000000000000
000000000000
000000000000
000000000000
000000000000
000000000000
000000000000
000000000000
000000000000
000000000000
000000000000
000000000000
000000000000
000000000000
000000000000
000000000000
000000000000
ENDCHAR
STARTCHAR U+2017
ENCODING 8215
SWIDTH 1000 0
DWIDTH 34 0
BBX 47 40 -6 -8
BITMAP
000000000000
000000000000
000000000000
000000000000
000000000000
000000000000
000000000000
000000000000
000000000000
000000000000
000000000000
000000000000
000000000000
000000000000
000000000000
000000000000
000000000000
000000000000
000000000000
000000000000
000000000000
000000000000
000000000000
000000000000
000000000000
000000000000
000000000000
000000000000
1fffffffc000
1fffffffc000
3fffffff8000
3fffffff8000
000000000000
000000000000
000000000000
000000000000
fffffffe0000
fffffffe0000
fffffffe0000
fffffffc0000
ENDCHAR
STARTCHAR U+2016
ENCODING 8214
SWIDTH 1000 0
DWIDTH 34 0
BBX 47 40 -6 -8
BITMAP
000000000000
000000000000
000000000000
000000000000
000001fdfc00
000001fdfc00
000003fbf800
000003fbf800
000003fbf800
000007f7f000
000007f7f000
000007f7f000
00000fefe000
00000fefe000
00000fefe000
00001fdfc000
00001fdfc000
00001fdfc000
00003fbf8000
00003fbf8000
00003fbf8000
00007f7f0000
00007f7f0000
00007f7f0000
0000fefe0000
0000fefe0000
0000fefe0000
0001fdfc0000
0001fdfc0000
0001fdfc0000
0003fbf80000
0003fbf80000
000000000000
000000000000
000000000000
000000000000
000000000000
000000000000
000000000000
000000000000
ENDCHAR
STARTCHAR U+2015
ENCODING 8213
SWIDTH 1000 0
DWIDTH 34 0
BBX 47 40 -6 -8
BITMAP
000000000000
000000000000
000000000000
000000000000
000000000000
000000000000
000000000000
000000000000
000000000000
000000000000
000000000000
000000000000
000000000000
000000000000
000000000000
000000000000
01ffffffffc0
01ffffffffc0
03ffffffff80
03ffffffff80
000000000000
000000000000
000000000000
000000000000
000000000000
000000000000
000000000000
000000000000
000000000000
000000000000
000000000000
000000000000
000000000000
000000000000
000000000000
000000000000
000000000000
000000000000
000000000000
000000000000
ENDCHAR
STARTCHAR U+2014
ENCODING 8212
SWIDTH 1000 0
DWIDTH 34 0
BBX 47 40 -6 -8
BITMAP
000000000000
000000000000
000000000000
000000000000
000000000000
000000000000
000000000000
000000000000
000000000000
000000000000
000000000000
000000000000
000000000000
000000000000
000000000000
000000000000
01fffffffc00
01fffffffc00
03fffffff800
03fffffff800
000000000000
000000000000
000000000000
000000000000
000000000000
000000000000
000000000000
000000000000
000000000000
000000000000
000000000000
000000000000
000000000000
000000000000
000000000000
000000000000
000000000000
000000000000
000000000000
000000000000
ENDCHAR
STARTCHAR U+2013
ENCODING 8211
SWIDTH 1000 0
DWIDTH 34 0
BBX 47 40 -6 -8
BITMAP
000000000000
000000000000
000000000000
000000000000
000000000000
000000000000
000000000000
000000000000
000000000000
000000000000
000000000000
000000000000
000000000000
000000000000
000000000000
000000000000
0001ffffc000
0001ffffc000
0003ffff8000
0003ffff8000
000000000000
000000000000
000000000000
000000000000
000000000000
000000000000
000000000000
000000000000
000000000000
000000000000
000000000000
000000000000
000000000000
000000000000
000000000000
000000000000
000000000000
000000000000
000000000000
000000000000
ENDCHAR
STARTCHAR U+2012
ENCODING 8210
SWIDTH 1000 0
DWIDTH 34 0
BBX 47 40 -6 -8
BITMAP
000000000000
000000000000
000000000000
000000000000
000000000000
000000000000
000000000000
000000000000
000000000000
000000000000
000000000000
000000000000
000000000000
000000000000
000000000000
000000000000
001fffffc000
001fffffc000
003fffff8000
003fffff8000
000000000000
000000000000
000000000000
000000000000
000000000000
000000000000
000000000000
000000000000
000000000000
000000000000
000000000000
000000000000
000000000000
000000000000
000000000000
000000000000
000000000000
000000000000
000000000000
000000000000
ENDCHAR
STARTCHAR U+2011
ENCODING 8209
SWIDTH 1000 0
DWIDTH 34 0
BBX 47 40 -6 -8
BITMAP
000000000000
000000000000
000000000000
000000000000
000000000000
000000000000
000000000000
000000000000
000000000000
000000000000
000000000000
000000000000
000000000000
000000000000
000000000000
000000000000
0001fffc0000
0001fffc0000
0003fff80000
0003fff80000
000000000000
000000000000
000000000000
000000000000
000000000000
000000000000
000000000000
000000000000
000000000000
000000000000
000000000000
000000000000
000000000000
000000000000
000000000000
000000000000
000000000000
000000000000
000000000000
000000000000
ENDCHAR
STARTCHAR U+2010
ENCODING 8208
SWIDTH 1000 0
DWIDTH 34 0
BBX 47 40 -6 -8
BITMAP
000000000000
000000000000
000000000000
000000000000
000000000000
000000000000
000000000000
000000000000
000000000000
000000000000
000000000000
000000000000
000000000000
000000000000
000000000000
000000000000
0001fffc0000
0001fffc0000
0003fff80000
0003fff80000
000000000000
000000000000
000000000000
000000000000
000000000000
000000000000
000000000000
000000000000
000000000000
000000000000
000000000000
000000000000
000000000000
000000000000
000000000000
000000000000
000000000000
000000000000
000000000000
000000000000
ENDCHAR
STARTCHAR U+007F
ENCODING 127
SWIDTH 1000 0
DWIDTH 34 0
BBX 47 40 -6 -8
BITMAP
000000000000
000000000000
000000000000
000000000000
001fffc00000
001fffc00000
003fff800000
003fff800000
003f83f80000
007f07f00000
007f07f00000
007f07f00000
00fe0fe00000
00fe0fe00000
00fe0fe00000
01fc1fc00000
01fc1fc00000
01fc1fc00000
03f83f800000
03f83f800000
03fffff80000
07fffff00000
07fffff00000
07fffff00000
000fe0000000
000fe0000000
000fe0000000
001fc0000000
001fc0000000
001fc0000000
003f80000000
003f80000000
003f80000000
007f00000000
007f00000000
007f00000000
00fe00000000
00fe00000000
00fe00000000
01fc00000000
ENDCHAR
STARTCHAR U+007E
ENCODING 126
SWIDTH 1000 0
DWIDTH 34 0
BBX 47 40 -6 -8
BITMAP
000000000000
000000000000
000000000000
000000000000
0001ffc01fc0
0001ffc01fc0
0003ff803f80
0003ff803f80
003f83f83f80
007f07f07f00
007f07f07f00
007f07f07f00
00fe00ffe000
00fe00ffe000
00fe00ffe000
01fc01ffc000
000000000000
000000000000
000000000000
000000000000
000000000000
000000000000
000000000000
000000000000
000000000000
000000000000
000000000000
000000000000
000000000000
000000000000
000000000000
000000000000
000000000000
000000000000
000000000000
000000000000
000000000000
000000000000
000000000000
000000000000
ENDCHAR
STARTCHAR U+007D
ENCODING 125
SWIDTH 1000 0
DWIDTH 34 0
BBX 47 40 -6 -8
BITMAP
000000000000
000000000000
000000000000
000000000000
001fffc00000
001fffc00000
003fff800000
003fff800000
000003f80000
000007f00000
000007f00000
000007f00000
0000fe000000
0000fe000000
0000fe000000
0001fc000000
00001ffc0000
00001ffc0000
00003ff80000
00003ff80000
0003f8000000
0007f0000000
0007f0000000
0007f0000000
0000fe000000
0000fe000000
0000fe000000
0001fc000000
1fffc0000000
1fffc0000000
3fff80000000
3fff80000000
000000000000
000000000000
000000000000
000000000000
000000000000
000000000000
000000000000
000000000000
ENDCHAR
STARTCHAR U+007C
ENCODING 124
SWIDTH 1000 0
DWIDTH 34 0
BBX 47 40 -6 -8
BITMAP
000000000000
000000000000
000000000000
000000000000
000001fc0000
000001fc0000
000003f80000
000003f80000
000003f80000
000007f00000
000007f00000
000007f00000
00000fe00000
00000fe00000
00000fe00000
00001fc00000
00001fc00000
00001fc00000
00003f800000
00003f800000
00003f800000
00007f000000
00007f000000
00007f000000
0000fe000000
0000fe000000
0000fe000000
0001fc000000
0001fc000000
0001fc000000
0003f8000000
0003f8000000
000000000000
000000000000
000000000000
000000000000
000000000000
000000000000
000000000000
000000000000
ENDCHAR
STARTCHAR U+007B
ENCODING 123
SWIDTH 1000 0
DWIDTH 34 0
BBX 47 40 -6 -8
BITMAP
000000000000
000000000000
000000000000
000000000000
0000001fffc0
0000001fffc0
0000003fff80
0000003fff80
000003f80000
000007f00000
000007f00000
000007f00000
000000fe0000
000000fe0000
000000fe0000
000001fc0000
0001ffc00000
0001ffc00000
0003ff800000
0003ff800000
000003f80000
000007f00000
000007f00000
000007f00000
0000fe000000
0000fe000000
0000fe000000
0001fc000000
00001fffc000
00001fffc000
00003fff8000
00003fff8000
000000000000
000000000000
000000000000
000000000000
000000000000
000000000000
000000000000
000000000000
ENDCHAR
STARTCHAR U+007A
ENCODING 122
SWIDTH 1000 0
DWIDTH 34 0
BBX 47 40 -6 -8
BITMAP
000000000000
000000000000
000000000000
000000000000
000000000000
000000000000
000000000000
000000000000
000000000000
000000000000
000000000000
000000000000
00fffffffe00
00fffffffe00
00fffffffe00
01fffffffc00
0000001fc000
0000001fc000
0000003f8000
0000003f8000
00003ff80000
00007ff00000
00007ff00000
00007ff00000
000fe0000000
000fe0000000
000fe0000000
001fc0000000
1fffffffc000
1fffffffc000
3fffffff8000
3fffffff8000
000000000000
000000000000
000000000000
000000000000
000000000000
000000000000
000000000000
000000000000
ENDCHAR
STARTCHAR U+0079
ENCODING 121
SWIDTH 1000 0
DWIDTH 34 0
BBX 47 40 -6 -8
BITMAP
000000000000
000000000000
000000000000
000000000000
000000000000
000000000000
000000000000
000000000000
000000000000
000000000000
000000000000
000000000000
00fe000fe000
00fe000fe000
00fe000fe000
01fc001fc000
01fc001fc000
01fc001fc000
03f8003f8000
03f8003f8000
03f803ff8000
07f007ff0000
07f007ff0000
07f007ff0000
00fffefe0000
00fffefe0000
00fffefe0000
01fffdfc0000
000001fc0000
000001fc0000
000003f80000
000003f80000
3f8003f80000
7f0007f00000
7f0007f00000
7f0007f00000
0ffffe000000
0ffffe000000
0ffffe000000
1ffffc000000
ENDCHAR
STARTCHAR U+0078
ENCODING 120
SWIDTH 1000 0
DWIDTH 34 0
BBX 47 40 -6 -8
BITMAP
000000000000
000000000000
000000000000
000000000000
000000000000
000000000000
000000000000
000000000000
000000000000
000000000000
000000000000
000000000000
00fe000fe000
00fe000fe000
00fe000fe000
01fc001fc000
001fc1fc0000
001fc1fc0000
003f83f80000
003f83f80000
0003ff800000
0007ff000000
0007ff000000
0007ff000000
00fe0fe00000
00fe0fe00000
00fe0fe00000
01fc1fc00000
1fc001fc0000
1fc001fc0000
3f8003f80000
3f8003f80000
000000000000
000000000000
000000000000
000000000000
000000000000
000000000000
000000000000
000000000000
ENDCHAR
STARTCHAR U+0077
ENCODING 119
SWIDTH 1000 0
DWIDTH 34 0
BBX 47 40 -6 -8
BITMAP
000000000000
000000000000
000000000000
000000000000
000000000000
000000000000
000000000000
000000000000
000000000000
000000000000
000000000000
000000000000
00fe0000fe00
00fe0000fe00
00fe0000fe00
01fc0001fc00
01fc0001fc00
01fc0001fc00
03f80003f800
03f80003f800
03f83f83f800
07f07f07f000
07f07f07f000
07f07f07f000
0fefefefe000
0fefefefe000
0fefefefe000
1fdfdfdfc000
01fc01fc0000
01fc01fc0000
03f803f80000
03f803f80000
000000000000
000000000000
000000000000
000000000000
000000000000
000000000000
000000000000
000000000000
ENDCHAR
STARTCHAR U+0076
ENCODING 118
SWIDTH 1000 0
DWIDTH 34 0
BBX 47 40 -6 -8
BITMAP
000000000000
000000000000
000000000000
000000000000
000000000000
000000000000
000000000000
000000000000
000000000000
000000000000
000000000000
000000000000
00fe0000fe00
00fe0000fe00
00fe0000fe00
01fc0001fc00
01fc0001fc00
01fc0001fc00
03f80003f800
03f80003f800
003f803f8000
007f007f0000
007f007f0000
007f007f0000
000fefe00000
000fefe00000
000fefe00000
001fdfc00000
0001fc000000
0001fc000000
0003f8000000
0003f8000000
000000000000
000000000000
000000000000
000000000000
000000000000
000000000000
000000000000
000000000000
ENDCHAR
STARTCHAR U+0075
ENCODING 117
SWIDTH 1000 0
DWIDTH 34 0
BBX 47 40 -6 -8
BITMAP
000000000000
000000000000
000000000000
000000000000
000000000000
000000000000
000000000000
000000000000
000000000000
000000000000
000000000000
000000000000
00fe000fe000
00fe000fe000
00fe000fe000
01fc001fc000
01fc001fc000
01fc001fc000
03f8003f8000
03f8003f8000
03f8003f8000
07f0007f0000
07f0007f0000
07f0007f0000
0fe000fe0000
0fe000fe0000
0fe000fe0000
1fc001fc0000
01ffffdfc000
01ffffdfc000
03ffffbf8000
03ffffbf8000
000000000000
000000000000
000000000000
000000000000
000000000000
000000000000
000000000000
000000000000
ENDCHAR
STARTCHAR U+0074
ENCODING 116
SWIDTH 1000 0
DWIDTH 34 0
BBX 47 40 -6 -8
BITMAP
000000000000
000000000000
000000000000
000000000000
00001fc00000
00001fc00000
00003f800000
00003f800000
00003f800000
00007f000000
00007f000000
00007f000000
00fffffe0000
00fffffe0000
00fffffe0000
01fffffc0000
0001fc000000
0001fc000000
0003f8000000
0003f8000000
0003f8000000
0007f0000000
0007f0000000
0007f0000000
000fe0fe0000
000fe0fe0000
000fe0fe0000
001fc1fc0000
0001ffc00000
0001ffc00000
0003ff800000
0003ff800000
000000000000
000000000000
000000000000
000000000000
000000000000
000000000000
000000000000
000000000000
ENDCHAR
STARTCHAR U+0073
ENCODING 115
SWIDTH 1000 0
DWIDTH 34 0
BBX 47 40 -6 -8
BITMAP
000000000000
000000000000
000000000000
000000000000
000000000000
000000000000
000000000000
000000000000
000000000000
000000000000
000000000000
000000000000
000fffffe000
000fffffe000
000fffffe000
001fffffc000
01fc00000000
01fc00000000
03f800000000
03f800000000
003fffff8000
007fffff0000
007fffff0000
007fffff0000
0000000fe000
0000000fe000
0000000fe000
0000001fc000
1ffffffc0000
1ffffffc0000
3ffffff80000
3ffffff80000
000000000000
000000000000
000000000000
000000000000
000000000000
000000000000
000000000000
000000000000
ENDCHAR
STARTCHAR U+0072
ENCODING 114
SWIDTH 1000 0
DWIDTH 34 0
BBX 47 40 -6 -8
BITMAP
000000000000
000000000000
000000000000
000000000000
000000000000
000000000000
000000000000
000000000000
000000000000
000000000000
000000000000
000000000000
00fe0fffe000
00fe0fffe000
00fe0fffe000
01fc1fffc000
001ffc01fc00
001ffc01fc00
003ff803f800
003ff803f800
003f80000000
007f00000000
007f00000000
007f00000000
00fe00000000
00fe00000000
00fe00000000
01fc00000000
01fc00000000
01fc00000000
03f800000000
03f800000000
000000000000
000000000000
000000000000
000000000000
000000000000
000000000000
000000000000
000000000000
ENDCHAR
STARTCHAR U+0071
ENCODING 113
SWIDTH 1000 0
DWIDTH 34 0
BBX 47 40 -6 -8
BITMAP
000000000000
000000000000
000000000000
000000000000
000000000000
000000000000
000000000000
000000000000
000000000000
000000000000
000000000000
000000000000
000ffffefe00
000ffffefe00
000ffffefe00
001ffffdfc00
01fc001ffc00
01fc001ffc00
03f8003ff800
03f8003ff800
03f8003ff800
07f0007ff000
07f0007ff000
07f0007ff000
00ffffefe000
00ffffefe000
00ffffefe000
01ffffdfc000
0000001fc000
0000001fc000
0000003f8000
0000003f8000
0000003f8000
0000007f0000
0000007f0000
0000007f0000
000000fe0000
000000fe0000
000000fe0000
000001fc0000
ENDCHAR
STARTCHAR U+0070
ENCODING 112
SWIDTH 1000 0
DWIDTH 34 0
BBX 47 40 -6 -8
BITMAP
000000000000
000000000000
000000000000
000000000000
000000000000
000000000000
000000000000
000000000000
000000000000
000000000000
000000000000
000000000000
00feffffe000
00feffffe000
00feffffe000
01fdffffc000
01ffc001fc00
01ffc001fc00
03ff8003f800
03ff8003f800
03ff8003f800
07ff0007f000
07ff0007f000
07ff0007f000
0feffffe0000
0feffffe0000
0feffffe0000
1fdffffc0000
1fc000000000
1fc000000000
3f8000000000
3f8000000000
3f8000000000
7f0000000000
7f0000000000
7f0000000000
fe0000000000
fe0000000000
fe0000000000
fc0000000000
ENDCHAR
STARTCHAR U+006f
ENCODING 111
SWIDTH 1000 0
DWIDTH 34 0
BBX 47 40 -6 -8
BITMAP
000000000000
000000000000
000000000000
000000000000
000000000000
000000000000
000000000000
000000000000
000000000000
000000000000
000000000000
000000000000
000fffffe000
000fffffe000
000fffffe000
001fffffc000
01fc0001fc00
01fc0001fc00
03f80003f800
03f80003f800
03f80003f800
07f00007f000
07f00007f000
07f00007f000
0fe0000fe000
0fe0000fe000
0fe0000fe000
1fc0001fc000
01fffffc0000
01fffffc0000
03fffff80000
03fffff80000
000000000000
000000000000
000000000000
000000000000
000000000000
000000000000
000000000000
000000000000
ENDCHAR
STARTCHAR U+006e
ENCODING 110
SWIDTH 1000 0
DWIDTH 34 0
BBX 47 40 -6 -8
BITMAP
000000000000
000000000000
000000000000
000000000000
000000000000
000000000000
000000000000
000000000000
000000000000
000000000000
000000000000
000000000000
00feffffe000
00feffffe000
00feffffe000
01fdffffc000
01ffc001fc00
01ffc001fc00
03ff8003f800
03ff8003f800
03f80003f800
07f00007f000
07f00007f000
07f00007f000
0fe0000fe000
0fe0000fe000
0fe0000fe000
1fc0001fc000
1fc0001fc000
1fc0001fc000
3f80003f8000
3f80003f8000
000000000000
000000000000
000000000000
000000000000
000000000000
000000000000
000000000000
000000000000
ENDCHAR
STARTCHAR U+006d
ENCODING 109
SWIDTH 1000 0
DWIDTH 34 0
BBX 47 40 -6 -8
BITMAP
000000000000
000000000000
000000000000
000000000000
000000000000
000000000000
000000000000
000000000000
000000000000
000000000000
000000000000
000000000000
00ffe00fe000
00ffe00fe000
00ffe00fe000
01ffc01fc000
01fdfdfdfc00
01fdfdfdfc00
03fbfbfbf800
03fbfbfbf800
03f83f83f800
07f07f07f000
07f07f07f000
07f07f07f000
0fe0fe0fe000
0fe0fe0fe000
0fe0fe0fe000
1fc1fc1fc000
1fc0001fc000
1fc0001fc000
3f80003f8000
3f80003f8000
000000000000
000000000000
000000000000
000000000000
000000000000
000000000000
000000000000
000000000000
ENDCHAR
STARTCHAR U+006c
ENCODING 108
SWIDTH 1000 0
DWIDTH 34 0
BBX 47 40 -6 -8
BITMAP
000000000000
000000000000
000000000000
000000000000
00001ffc0000
00001ffc0000
00003ff80000
00003ff80000
000003f80000
000007f00000
000007f00000
000007f00000
00000fe00000
00000fe00000
00000fe00000
00001fc00000
00001fc00000
00001fc00000
00003f800000
00003f800000
00003f800000
00007f000000
00007f000000
00007f000000
0000fe000000
0000fe000000
0000fe000000
0001fc000000
001fffc00000
001fffc00000
003fff800000
003fff800000
000000000000
000000000000
000000000000
000000000000
000000000000
000000000000
000000000000
000000000000
ENDCHAR
STARTCHAR U+006b
ENCODING 107
SWIDTH 1000 0
DWIDTH 34 0
BBX 47 40 -6 -8
BITMAP
000000000000
000000000000
000000000000
000000000000
001fc0000000
001fc0000000
003f80000000
003f80000000
003f80000000
007f00000000
007f00000000
007f00000000
00fe00fe0000
00fe00fe0000
00fe00fe0000
01fc01fc0000
01fc1fc00000
01fc1fc00000
03f83f800000
03f83f800000
03fff8000000
07fff0000000
07fff0000000
07fff0000000
0fe00fe00000
0fe00fe00000
0fe00fe00000
1fc01fc00000
1fc0001fc000
1fc0001fc000
3f80003f8000
3f80003f8000
000000000000
000000000000
000000000000
000000000000
000000000000
000000000000
000000000000
000000000000
ENDCHAR
STARTCHAR U+006a
ENCODING 106
SWIDTH 1000 0
DWIDTH 34 0
BBX 47 40 -6 -8
BITMAP
000000000000
000000000000
000000000000
000000000000
00000001fc00
00000001fc00
00000003f800
00000003f800
000000000000
000000000000
000000000000
000000000000
0000000fe000
0000000fe000
0000000fe000
0000001fc000
0000001fc000
0000001fc000
0000003f8000
0000003f8000
0000003f8000
0000007f0000
0000007f0000
0000007f0000
000000fe0000
000000fe0000
000000fe0000
000001fc0000
1fc001fc0000
1fc001fc0000
3f8003f80000
3f8003f80000
3f8003f80000
7f0007f00000
7f0007f00000
7f0007f00000
0ffffe000000
0ffffe000000
0ffffe000000
1ffffc000000
ENDCHAR
STARTCHAR U+0069
ENCODING 105
SWIDTH 1000 0
DWIDTH 34 0
BBX 47 40 -6 -8
BITMAP
000000000000
000000000000
000000000000
000000000000
000001fc0000
000001fc0000
000003f80000
000003f80000
000000000000
000000000000
000000000000
000000000000
0000ffe00000
0000ffe00000
0000ffe00000
0001ffc00000
00001fc00000
00001fc00000
00003f800000
00003f800000
00003f800000
00007f000000
00007f000000
00007f000000
0000fe000000
0000fe000000
0000fe000000
0001fc000000
01fffffc0000
01fffffc0000
03fffff80000
03fffff80000
000000000000
000000000000
000000000000
000000000000
000000000000
000000000000
000000000000
000000000000
ENDCHAR
STARTCHAR U+0068
ENCODING 104
SWIDTH 1000 0
DWIDTH 34 0
BBX 47 40 -6 -8
BITMAP
000000000000
000000000000
000000000000
000000000000
001fc0000000
001fc0000000
003f80000000
003f80000000
003f80000000
007f00000000
007f00000000
007f00000000
00feffffe000
00feffffe000
00feffffe000
01fdffffc000
01ffc001fc00
01ffc001fc00
03ff8003f800
03ff8003f800
03f80003f800
07f00007f000
07f00007f000
07f00007f000
0fe0000fe000
0fe0000fe000
0fe0000fe000
1fc0001fc000
1fc0001fc000
1fc0001fc000
3f80003f8000
3f80003f8000
000000000000
000000000000
000000000000
000000000000
000000000000
000000000000
000000000000
000000000000
ENDCHAR
STARTCHAR U+0067
ENCODING 103
SWIDTH 1000 0
DWIDTH 34 0
BBX 47 40 -6 -8
BITMAP
000000000000
000000000000
000000000000
000000000000
000000000000
000000000000
000000000000
000000000000
000000000000
000000000000
000000000000
000000000000
000ffffefe00
000ffffefe00
000ffffefe00
001ffffdfc00
01fc001fc000
01fc001fc000
03f8003f8000
03f8003f8000
003ffff80000
007ffff00000
007ffff00000
007ffff00000
0fe000000000
0fe000000000
0fe000000000
1fc000000000
01fffffc0000
01fffffc0000
03fffff80000
03fffff80000
3f80003f8000
7f00007f0000
7f00007f0000
7f00007f0000
0fffffe00000
0fffffe00000
0fffffe00000
1fffffc00000
ENDCHAR
STARTCHAR U+0066
ENCODING 102
SWIDTH 1000 0
DWIDTH 34 0
BBX 47 40 -6 -8
BITMAP
000000000000
000000000000
000000000000
000000000000
000001fffc00
000001fffc00
000003fff800
000003fff800
00003f803f80
00007f007f00
00007f007f00
00007f007f00
0000fe000000
0000fe000000
0000fe000000
0001fc000000
01fffffc0000
01fffffc0000
03fffff80000
03fffff80000
0003f8000000
0007f0000000
0007f0000000
0007f0000000
000fe0000000
000fe0000000
000fe0000000
001fc0000000
001fc0000000
001fc0000000
003f80000000
003f80000000
000000000000
000000000000
000000000000
000000000000
000000000000
000000000000
000000000000
000000000000
ENDCHAR
STARTCHAR U+0065
ENCODING 101
SWIDTH 1000 0
DWIDTH 34 0
BBX 47 40 -6 -8
BITMAP
000000000000
000000000000
000000000000
000000000000
000000000000
000000000000
000000000000
000000000000
000000000000
000000000000
000000000000
000000000000
000fffffe000
000fffffe000
000fffffe000
001fffffc000
01fc0001fc00
01fc0001fc00
03f80003f800
03f80003f800
03fffffff800
07fffffff000
07fffffff000
07fffffff000
0fe000000000
0fe000000000
0fe000000000
1fc000000000
01fffffc0000
01fffffc0000
03fffff80000
03fffff80000
000000000000
000000000000
000000000000
000000000000
000000000000
000000000000
000000000000
000000000000
ENDCHAR
STARTCHAR U+0064
ENCODING 100
SWIDTH 1000 0
DWIDTH 34 0
BBX 47 40 -6 -8
BITMAP
000000000000
000000000000
000000000000
000000000000
000000001fc0
000000001fc0
000000003f80
000000003f80
000000003f80
000000007f00
000000007f00
000000007f00
000ffffefe00
000ffffefe00
000ffffefe00
001ffffdfc00
01fc001ffc00
01fc001ffc00
03f8003ff800
03f8003ff800
03f80003f800
07f00007f000
07f00007f000
07f00007f000
0fe000ffe000
0fe000ffe000
0fe000ffe000
1fc001ffc000
01ffffdfc000
01ffffdfc000
03ffffbf8000
03ffffbf8000
000000000000
000000000000
000000000000
000000000000
000000000000
000000000000
000000000000
000000000000
ENDCHAR
STARTCHAR U+0063
ENCODING 99
SWIDTH 1000 0
DWIDTH 34 0
BBX 47 40 -6 -8
BITMAP
000000000000
000000000000
000000000000
000000000000
000000000000
000000000000
000000000000
000000000000
000000000000
000000000000
000000000000
000000000000
000fffffe000
000fffffe000
000fffffe000
001fffffc000
01fc0001fc00
01fc0001fc00
03f80003f800
03f80003f800
03f800000000
07f000000000
07f000000000
07f000000000
0fe000000000
0fe000000000
0fe000000000
1fc000000000
01ffffffc000
01ffffffc000
03ffffff8000
03ffffff8000
000000000000
000000000000
000000000000
000000000000
000000000000
000000000000
000000000000
000000000000
ENDCHAR
STARTCHAR U+0062
ENCODING 98
SWIDTH 1000 0
DWIDTH 34 0
BBX 47 40 -6 -8
BITMAP
000000000000
000000000000
000000000000
000000000000
001fc0000000
001fc0000000
003f80000000
003f80000000
003f80000000
007f00000000
007f00000000
007f00000000
00feffffe000
00feffffe000
00feffffe000
01fdffffc000
01ffc001fc00
01ffc001fc00
03ff8003f800
03ff8003f800
03f80003f800
07f00007f000
07f00007f000
07f00007f000
0ffe000fe000
0ffe000fe000
0ffe000fe000
1ffc001fc000
1fdffffc0000
1fdffffc0000
3fbffff80000
3fbffff80000
000000000000
000000000000
000000000000
000000000000
000000000000
000000000000
000000000000
000000000000
ENDCHAR
STARTCHAR U+0061
ENCODING 97
SWIDTH 1000 0
DWIDTH 34 0
BBX 47 40 -6 -8
BITMAP
000000000000
000000000000
000000000000
000000000000
000000000000
000000000000
000000000000
000000000000
000000000000
000000000000
000000000000
000000000000
000fffffe000
000fffffe000
000fffffe000
001fffffc000
00000001fc00
00000001fc00
00000003f800
00000003f800
003ffffff800
007ffffff000
007ffffff000
007ffffff000
0fe000ffe000
0fe000ffe000
0fe000ffe000
1fc001ffc000
01ffffdfc000
01ffffdfc000
03ffffbf8000
03ffffbf8000
000000000000
000000000000
000000000000
000000000000
000000000000
000000000000
000000000000
000000000000
ENDCHAR
STARTCHAR U+0060
ENCODING 96
SWIDTH 1000 0
DWIDTH 34 0
BBX 47 40 -6 -8
BITMAP
000000000000
000000000000
000000000000
000000000000
00001ffc0000
00001ffc0000
00003ff80000
00003ff80000
000003f80000
000007f00000
000007f00000
000007f00000
000000fe0000
000000fe0000
000000fe0000
000001fc0000
000000000000
000000000000
000000000000
000000000000
000000000000
000000000000
000000000000
000000000000
000000000000
000000000000
000000000000
000000000000
000000000000
000000000000
000000000000
000000000000
000000000000
000000000000
000000000000
000000000000
000000000000
000000000000
000000000000
000000000000
ENDCHAR
STARTCHAR U+005F
ENCODING 95
SWIDTH 1000 0
DWIDTH 34 0
BBX 47 40 -6 -8
BITMAP
000000000000
000000000000
000000000000
000000000000
000000000000
000000000000
000000000000
000000000000
000000000000
000000000000
000000000000
000000000000
000000000000
000000000000
000000000000
000000000000
000000000000
000000000000
000000000000
000000000000
000000000000
000000000000
000000000000
000000000000
000000000000
000000000000
000000000000
000000000000
1fffffffc000
1fffffffc000
3fffffff8000
3fffffff8000
000000000000
000000000000
000000000000
000000000000
000000000000
000000000000
000000000000
000000000000
ENDCHAR
STARTCHAR U+005E
ENCODING 94
SWIDTH 1000 0
DWIDTH 34 0
BBX 47 40 -6 -8
BITMAP
000000000000
000000000000
000000000000
000000000000
000001fc0000
000001fc0000
000003f80000
000003f80000
00003fbf8000
00007f7f0000
00007f7f0000
00007f7f0000
000fe00fe000
000fe00fe000
000fe00fe000
001fc01fc000
01fc0001fc00
01fc0001fc00
03f80003f800
03f80003f800
000000000000
000000000000
000000000000
000000000000
000000000000
000000000000
000000000000
000000000000
000000000000
000000000000
000000000000
000000000000
000000000000
000000000000
000000000000
000000000000
000000000000
000000000000
000000000000
000000000000
ENDCHAR
STARTCHAR U+005D
ENCODING 93
SWIDTH 1000 0
DWIDTH 34 0
BBX 47 40 -6 -8
BITMAP
000000000000
000000000000
000000000000
000000000000
0001ffffc000
0001ffffc000
0003ffff8000
0003ffff8000
0000003f8000
0000007f0000
0000007f0000
0000007f0000
000000fe0000
000000fe0000
000000fe0000
000001fc0000
000001fc0000
000001fc0000
000003f80000
000003f80000
000003f80000
000007f00000
000007f00000
000007f00000
00000fe00000
00000fe00000
00000fe00000
00001fc00000
01ffffc00000
01ffffc00000
03ffff800000
03ffff800000
000000000000
000000000000
000000000000
000000000000
000000000000
000000000000
000000000000
000000000000
ENDCHAR
STARTCHAR U+005C
ENCODING 92
SWIDTH 1000 0
DWIDTH 34 0
BBX 47 40 -6 -8
BITMAP
000000000000
000000000000
000000000000
000000000000
001fc0000000
001fc0000000
003f80000000
003f80000000
0003f8000000
0007f0000000
0007f0000000
0007f0000000
0000fe000000
0000fe000000
0000fe000000
0001fc000000
00001fc00000
00001fc00000
00003f800000
00003f800000
000003f80000
000007f00000
000007f00000
000007f00000
000000fe0000
000000fe0000
000000fe0000
000001fc0000
0000001fc000
0000001fc000
0000003f8000
0000003f8000
000000000000
000000000000
000000000000
000000000000
000000000000
000000000000
000000000000
000000000000
ENDCHAR
STARTCHAR U+005B
ENCODING 91
SWIDTH 1000 0
DWIDTH 34 0
BBX 47 40 -6 -8
BITMAP
000000000000
000000000000
000000000000
000000000000
00001ffffc00
00001ffffc00
00003ffff800
00003ffff800
00003f800000
00007f000000
00007f000000
00007f000000
0000fe000000
0000fe000000
0000fe000000
0001fc000000
0001fc000000
0001fc000000
0003f8000000
0003f8000000
0003f8000000
0007f0000000
0007f0000000
0007f0000000
000fe0000000
000fe0000000
000fe0000000
001fc0000000
001ffffc0000
001ffffc0000
003ffff80000
003ffff80000
000000000000
000000000000
000000000000
000000000000
000000000000
000000000000
000000000000
000000000000
ENDCHAR
STARTCHAR U+005A
ENCODING 90
SWIDTH 1000 0
DWIDTH 34 0
BBX 47 40 -6 -8
BITMAP
000000000000
000000000000
000000000000
000000000000
001fffffffc0
001fffffffc0
003fffffff80
003fffffff80
00000003f800
00000007f000
00000007f000
00000007f000
000000fe0000
000000fe0000
000000fe0000
000001fc0000
00001fc00000
00001fc00000
00003f800000
00003f800000
0003f8000000
0007f0000000
0007f0000000
0007f0000000
00fe00000000
00fe00000000
00fe00000000
01fc00000000
1fffffffc000
1fffffffc000
3fffffff8000
3fffffff8000
000000000000
000000000000
000000000000
000000000000
000000000000
000000000000
000000000000
000000000000
ENDCHAR
STARTCHAR U+0059
ENCODING 89
SWIDTH 1000 0
DWIDTH 34 0
BBX 47 40 -6 -8
BITMAP
000000000000
000000000000
000000000000
000000000000
001fc0001fc0
001fc0001fc0
003f80003f80
003f80003f80
0003f803f800
0007f007f000
0007f007f000
0007f007f000
0000fefe0000
0000fefe0000
0000fefe0000
0001fdfc0000
00001fc00000
00001fc00000
00003f800000
00003f800000
00003f800000
00007f000000
00007f000000
00007f000000
0000fe000000
0000fe000000
0000fe000000
0001fc000000
0001fc000000
0001fc000000
0003f8000000
0003f8000000
000000000000
000000000000
000000000000
000000000000
000000000000
000000000000
000000000000
000000000000
ENDCHAR
STARTCHAR U+0058
ENCODING 88
SWIDTH 1000 0
DWIDTH 34 0
BBX 47 40 -6 -8
BITMAP
000000000000
000000000000
000000000000
000000000000
001fc0001fc0
001fc0001fc0
003f80003f80
003f80003f80
0003f803f800
0007f007f000
0007f007f000
0007f007f000
0000fefe0000
0000fefe0000
0000fefe0000
0001fdfc0000
00001fc00000
00001fc00000
00003f800000
00003f800000
0003fbf80000
0007f7f00000
0007f7f00000
0007f7f00000
00fe00fe0000
00fe00fe0000
00fe00fe0000
01fc01fc0000
1fc0001fc000
1fc0001fc000
3f80003f8000
3f80003f8000
000000000000
000000000000
000000000000
000000000000
000000000000
000000000000
000000000000
000000000000
ENDCHAR
STARTCHAR U+0057
ENCODING 87
SWIDTH 1000 0
DWIDTH 34 0
BBX 47 40 -6 -8
BITMAP
000000000000
000000000000
000000000000
000000000000
001fc0001fc0
001fc0001fc0
003f80003f80
003f80003f80
003f80003f80
007f00007f00
007f00007f00
007f00007f00
00fe0000fe00
00fe0000fe00
00fe0000fe00
01fc0001fc00
01fc1fc1fc00
01fc1fc1fc00
03f83f83f800
03f83f83f800
03f83f83f800
07f07f07f000
07f07f07f000
07f07f07f000
0fefefefe000
0fefefefe000
0fefefefe000
1fdfdfdfc000
01fc01fc0000
01fc01fc0000
03f803f80000
03f803f80000
000000000000
000000000000
000000000000
000000000000
000000000000
000000000000
000000000000
000000000000
ENDCHAR
STARTCHAR U+0056
ENCODING 86
SWIDTH 1000 0
DWIDTH 34 0
BBX 47 40 -6 -8
BITMAP
000000000000
000000000000
000000000000
000000000000
001fc0001fc0
001fc0001fc0
003f80003f80
003f80003f80
003f80003f80
007f00007f00
007f00007f00
007f00007f00
000fe00fe000
000fe00fe000
000fe00fe000
001fc01fc000
001fc01fc000
001fc01fc000
003f803f8000
003f803f8000
0003fbf80000
0007f7f00000
0007f7f00000
0007f7f00000
000fefe00000
000fefe00000
000fefe00000
001fdfc00000
0001fc000000
0001fc000000
0003f8000000
0003f8000000
000000000000
000000000000
000000000000
000000000000
000000000000
000000000000
000000000000
000000000000
ENDCHAR
STARTCHAR U+0055
ENCODING 85
SWIDTH 1000 0
DWIDTH 34 0
BBX 47 40 -6 -8
BITMAP
000000000000
000000000000
000000000000
000000000000
001fc0001fc0
001fc0001fc0
003f80003f80
003f80003f80
003f80003f80
007f00007f00
007f00007f00
007f00007f00
00fe0000fe00
00fe0000fe00
00fe0000fe00
01fc0001fc00
01fc0001fc00
01fc0001fc00
03f80003f800
03f80003f800
03f80003f800
07f00007f000
07f00007f000
07f00007f000
0fe0000fe000
0fe0000fe000
0fe0000fe000
1fc0001fc000
01fffffc0000
01fffffc0000
03fffff80000
03fffff80000
000000000000
000000000000
000000000000
000000000000
000000000000
000000000000
000000000000
000000000000
ENDCHAR
STARTCHAR U+0054
ENCODING 84
SWIDTH 1000 0
DWIDTH 34 0
BBX 47 40 -6 -8
BITMAP
000000000000
000000000000
000000000000
000000000000
001fffffffc0
001fffffffc0
003fffffff80
003fffffff80
000003f80000
000007f00000
000007f00000
000007f00000
00000fe00000
00000fe00000
00000fe00000
00001fc00000
00001fc00000
00001fc00000
00003f800000
00003f800000
00003f800000
00007f000000
00007f000000
00007f000000
0000fe000000
0000fe000000
0000fe000000
0001fc000000
0001fc000000
0001fc000000
0003f8000000
0003f8000000
000000000000
000000000000
000000000000
000000000000
000000000000
000000000000
000000000000
000000000000
ENDCHAR
STARTCHAR U+0053
ENCODING 83
SWIDTH 1000 0
DWIDTH 34 0
BBX 47 40 -6 -8
BITMAP
000000000000
000000000000
000000000000
000000000000
0001fffffc00
0001fffffc00
0003fffff800
0003fffff800
003f80003f80
007f00007f00
007f00007f00
007f00007f00
00fe00000000
00fe00000000
00fe00000000
01fc00000000
001fffffc000
001fffffc000
003fffff8000
003fffff8000
00000003f800
00000007f000
00000007f000
00000007f000
0fe0000fe000
0fe0000fe000
0fe0000fe000
1fc0001fc000
01fffffc0000
01fffffc0000
03fffff80000
03fffff80000
000000000000
000000000000
000000000000
000000000000
000000000000
000000000000
000000000000
000000000000
ENDCHAR
STARTCHAR U+0052
ENCODING 82
SWIDTH 1000 0
DWIDTH 34 0
BBX 47 40 -6 -8
BITMAP
000000000000
000000000000
000000000000
000000000000
001ffffffc00
001ffffffc00
003ffffff800
003ffffff800
003f80003f80
007f00007f00
007f00007f00
007f00007f00
00fe0000fe00
00fe0000fe00
00fe0000fe00
01fc0001fc00
01ffffffc000
01ffffffc000
03ffffff8000
03ffffff8000
03f803f80000
07f007f00000
07f007f00000
07f007f00000
0fe000fe0000
0fe000fe0000
0fe000fe0000
1fc001fc0000
1fc0001fc000
1fc0001fc000
3f80003f8000
3f80003f8000
000000000000
000000000000
000000000000
000000000000
000000000000
000000000000
000000000000
000000000000
ENDCHAR
STARTCHAR U+0051
ENCODING 81
SWIDTH 1000 0
DWIDTH 34 0
BBX 47 40 -6 -8
BITMAP
000000000000
000000000000
000000000000
000000000000
0001fffffc00
0001fffffc00
0003fffff800
0003fffff800
003f80003f80
007f00007f00
007f00007f00
007f00007f00
00fe0000fe00
00fe0000fe00
00fe0000fe00
01fc0001fc00
01fc0001fc00
01fc0001fc00
03f80003f800
03f80003f800
03f803fbf800
07f007f7f000
07f007f7f000
07f007f7f000
0fe000fe0000
0fe000fe0000
0fe000fe0000
1fc001fc0000
01ffffdfc000
01ffffdfc000
03ffffbf8000
03ffffbf8000
000000000000
000000000000
000000000000
000000000000
000000000000
000000000000
000000000000
000000000000
ENDCHAR
STARTCHAR U+0050
ENCODING 80
SWIDTH 1000 0
DWIDTH 34 0
BBX 47 40 -6 -8
BITMAP
000000000000
000000000000
000000000000
000000000000
001ffffffc00
001ffffffc00
003ffffff800
003ffffff800
003f80003f80
007f00007f00
007f00007f00
007f00007f00
00fe0000fe00
00fe0000fe00
00fe0000fe00
01fc0001fc00
01ffffffc000
01ffffffc000
03ffffff8000
03ffffff8000
03f800000000
07f000000000
07f000000000
07f000000000
0fe000000000
0fe000000000
0fe000000000
1fc000000000
1fc000000000
1fc000000000
3f8000000000
3f8000000000
000000000000
000000000000
000000000000
000000000000
000000000000
000000000000
000000000000
000000000000
ENDCHAR
STARTCHAR U+004F
ENCODING 79
SWIDTH 1000 0
DWIDTH 34 0
BBX 47 40 -6 -8
BITMAP
000000000000
000000000000
000000000000
000000000000
0001fffffc00
0001fffffc00
0003fffff800
0003fffff800
003f80003f80
007f00007f00
007f00007f00
007f00007f00
00fe0000fe00
00fe0000fe00
00fe0000fe00
01fc0001fc00
01fc0001fc00
01fc0001fc00
03f80003f800
03f80003f800
03f80003f800
07f00007f000
07f00007f000
07f00007f000
0fe0000fe000
0fe0000fe000
0fe0000fe000
1fc0001fc000
01fffffc0000
01fffffc0000
03fffff80000
03fffff80000
000000000000
000000000000
000000000000
000000000000
000000000000
000000000000
000000000000
000000000000
ENDCHAR
STARTCHAR U+004E
ENCODING 78
SWIDTH 1000 0
DWIDTH 34 0
BBX 47 40 -6 -8
BITMAP
000000000000
000000000000
000000000000
000000000000
001fc0001fc0
001fc0001fc0
003f80003f80
003f80003f80
003ff8003f80
007ff0007f00
007ff0007f00
007ff0007f00
00fefe00fe00
00fefe00fe00
00fefe00fe00
01fdfc01fc00
01fc1fc1fc00
01fc1fc1fc00
03f83f83f800
03f83f83f800
03f803fbf800
07f007f7f000
07f007f7f000
07f007f7f000
0fe000ffe000
0fe000ffe000
0fe000ffe000
1fc001ffc000
1fc0001fc000
1fc0001fc000
3f80003f8000
3f80003f8000
000000000000
000000000000
000000000000
000000000000
000000000000
000000000000
000000000000
000000000000
ENDCHAR
STARTCHAR U+004D
ENCODING 77
SWIDTH 1000 0
DWIDTH 34 0
BBX 47 40 -6 -8
BITMAP
000000000000
000000000000
000000000000
000000000000
001fc0001fc0
001fc0001fc0
003f80003f80
003f80003f80
003ff803ff80
007ff007ff00
007ff007ff00
007ff007ff00
00fefefefe00
00fefefefe00
00fefefefe00
01fdfdfdfc00
01fc1fc1fc00
01fc1fc1fc00
03f83f83f800
03f83f83f800
03f80003f800
07f00007f000
07f00007f000
07f00007f000
0fe0000fe000
0fe0000fe000
0fe0000fe000
1fc0001fc000
1fc0001fc000
1fc0001fc000
3f80003f8000
3f80003f8000
000000000000
000000000000
000000000000
000000000000
000000000000
000000000000
000000000000
000000000000
ENDCHAR
STARTCHAR U+004C
ENCODING 76
SWIDTH 1000 0
DWIDTH 34 0
BBX 47 40 -6 -8
BITMAP
000000000000
000000000000
000000000000
000000000000
001fc0000000
001fc0000000
003f80000000
003f80000000
003f80000000
007f00000000
007f00000000
007f00000000
00fe00000000
00fe00000000
00fe00000000
01fc00000000
01fc00000000
01fc00000000
03f800000000
03f800000000
03f800000000
07f000000000
07f000000000
07f000000000
0fe000000000
0fe000000000
0fe000000000
1fc000000000
1fffffffc000
1fffffffc000
3fffffff8000
3fffffff8000
000000000000
000000000000
000000000000
000000000000
000000000000
000000000000
000000000000
000000000000
ENDCHAR
STARTCHAR U+004B
ENCODING 75
SWIDTH 1000 0
DWIDTH 34 0
BBX 47 40 -6 -8
BITMAP
000000000000
000000000000
000000000000
000000000000
001fc0001fc0
001fc0001fc0
003f80003f80
003f80003f80
003f803ff800
007f007ff000
007f007ff000
007f007ff000
00feffe00000
00feffe00000
00feffe00000
01fdffc00000
01ffc0000000
01ffc0000000
03ff80000000
03ff80000000
03fbff800000
07f7ff000000
07f7ff000000
07f7ff000000
0fe00ffe0000
0fe00ffe0000
0fe00ffe0000
1fc01ffc0000
1fc0001fc000
1fc0001fc000
3f80003f8000
3f80003f8000
000000000000
000000000000
000000000000
000000000000
000000000000
000000000000
000000000000
000000000000
ENDCHAR
STARTCHAR U+004A
ENCODING 74
SWIDTH 1000 0
DWIDTH 34 0
BBX 47 40 -6 -8
BITMAP
000000000000
000000000000
000000000000
000000000000
0000001fffc0
0000001fffc0
0000003fff80
0000003fff80
00000003f800
00000007f000
00000007f000
00000007f000
0000000fe000
0000000fe000
0000000fe000
0000001fc000
0000001fc000
0000001fc000
0000003f8000
0000003f8000
0000003f8000
0000007f0000
0000007f0000
0000007f0000
0fe000fe0000
0fe000fe0000
0fe000fe0000
1fc001fc0000
01ffffc00000
01ffffc00000
03ffff800000
03ffff800000
000000000000
000000000000
000000000000
000000000000
000000000000
000000000000
000000000000
000000000000
ENDCHAR
STARTCHAR U+0049
ENCODING 73
SWIDTH 1000 0
DWIDTH 34 0
BBX 47 40 -6 -8
BITMAP
000000000000
000000000000
000000000000
000000000000
0001fffffc00
0001fffffc00
0003fffff800
0003fffff800
000003f80000
000007f00000
000007f00000
000007f00000
00000fe00000
00000fe00000
00000fe00000
00001fc00000
00001fc00000
00001fc00000
00003f800000
00003f800000
00003f800000
00007f000000
00007f000000
00007f000000
0000fe000000
0000fe000000
0000fe000000
0001fc000000
01fffffc0000
01fffffc0000
03fffff80000
03fffff80000
000000000000
000000000000
000000000000
000000000000
000000000000
000000000000
000000000000
000000000000
ENDCHAR
STARTCHAR U+0048
ENCODING 72
SWIDTH 1000 0
DWIDTH 34 0
BBX 47 40 -6 -8
BITMAP
000000000000
000000000000
000000000000
000000000000
001fc0001fc0
001fc0001fc0
003f80003f80
003f80003f80
003f80003f80
007f00007f00
007f00007f00
007f00007f00
00fe0000fe00
00fe0000fe00
00fe0000fe00
01fc0001fc00
01fffffffc00
01fffffffc00
03fffffff800
03fffffff800
03f80003f800
07f00007f000
07f00007f000
07f00007f000
0fe0000fe000
0fe0000fe000
0fe0000fe000
1fc0001fc000
1fc0001fc000
1fc0001fc000
3f80003f8000
3f80003f8000
000000000000
000000000000
000000000000
000000000000
000000000000
000000000000
000000000000
000000000000
ENDCHAR
STARTCHAR U+0047
ENCODING 71
SWIDTH 1000 0
DWIDTH 34 0
BBX 47 40 -6 -8
BITMAP
000000000000
000000000000
000000000000
000000000000
00001ffffc00
00001ffffc00
00003ffff800
00003ffff800
0003f8003f80
0007f0007f00
0007f0007f00
0007f0007f00
00fe00000000
00fe00000000
00fe00000000
01fc00000000
01fc00000000
01fc00000000
03f800000000
03f800000000
03f803fff800
07f007fff000
07f007fff000
07f007fff000
00fe000fe000
00fe000fe000
00fe000fe000
01fc001fc000
001ffffc0000
001ffffc0000
003ffff80000
003ffff80000
000000000000
000000000000
000000000000
000000000000
000000000000
000000000000
000000000000
000000000000
ENDCHAR
STARTCHAR U+0046
ENCODING 70
SWIDTH 1000 0
DWIDTH 34 0
BBX 47 40 -6 -8
BITMAP
000000000000
000000000000
000000000000
000000000000
001fffffffc0
001fffffffc0
003fffffff80
003fffffff80
003f80000000
007f00000000
007f00000000
007f00000000
00fe00000000
00fe00000000
00fe00000000
01fc00000000
01fffffc0000
01fffffc0000
03fffff80000
03fffff80000
03f800000000
07f000000000
07f000000000
07f000000000
0fe000000000
0fe000000000
0fe000000000
1fc000000000
1fc000000000
1fc000000000
3f8000000000
3f8000000000
000000000000
000000000000
000000000000
000000000000
000000000000
000000000000
000000000000
000000000000
ENDCHAR
STARTCHAR U+0045
ENCODING 69
SWIDTH 1000 0
DWIDTH 34 0
BBX 47 40 -6 -8
BITMAP
000000000000
000000000000
000000000000
000000000000
001fffffffc0
001fffffffc0
003fffffff80
003fffffff80
003f80000000
007f00000000
007f00000000
007f00000000
00fe00000000
00fe00000000
00fe00000000
01fc00000000
01fffffc0000
01fffffc0000
03fffff80000
03fffff80000
03f800000000
07f000000000
07f000000000
07f000000000
0fe000000000
0fe000000000
0fe000000000
1fc000000000
1fffffffc000
1fffffffc000
3fffffff8000
3fffffff8000
000000000000
000000000000
000000000000
000000000000
000000000000
000000000000
000000000000
000000000000
ENDCHAR
STARTCHAR U+0044
ENCODING 68
SWIDTH 1000 0
DWIDTH 34 0
BBX 47 40 -6 -8
BITMAP
000000000000
000000000000
000000000000
000000000000
001fffffc000
001fffffc000
003fffff8000
003fffff8000
0003f803f800
0007f007f000
0007f007f000
0007f007f000
000fe000fe00
000fe000fe00
000fe000fe00
001fc001fc00
001fc001fc00
001fc001fc00
003f8003f800
003f8003f800
003f8003f800
007f0007f000
007f0007f000
007f0007f000
00fe00fe0000
00fe00fe0000
00fe00fe0000
01fc01fc0000
1fffffc00000
1fffffc00000
3fffff800000
3fffff800000
000000000000
000000000000
000000000000
000000000000
000000000000
000000000000
000000000000
000000000000
ENDCHAR
STARTCHAR U+0043
ENCODING 67
SWIDTH 1000 0
DWIDTH 34 0
BBX 47 40 -6 -8
BITMAP
000000000000
000000000000
000000000000
000000000000
00001ffffc00
00001ffffc00
00003ffff800
00003ffff800
0003f8003f80
0007f0007f00
0007f0007f00
0007f0007f00
00fe00000000
00fe00000000
00fe00000000
01fc00000000
01fc00000000
01fc00000000
03f800000000
03f800000000
03f800000000
07f000000000
07f000000000
07f000000000
00fe000fe000
00fe000fe000
00fe000fe000
01fc001fc000
001ffffc0000
001ffffc0000
003ffff80000
003ffff80000
000000000000
000000000000
000000000000
000000000000
000000000000
000000000000
000000000000
000000000000
ENDCHAR
STARTCHAR U+0042
ENCODING 66
SWIDTH 1000 0
DWIDTH 34 0
BBX 47 40 -6 -8
BITMAP
000000000000
000000000000
000000000000
000000000000
001ffffffc00
001ffffffc00
003ffffff800
003ffffff800
0003f8003f80
0007f0007f00
0007f0007f00
0007f0007f00
000fe000fe00
000fe000fe00
000fe000fe00
001fc001fc00
001fffffc000
001fffffc000
003fffff8000
003fffff8000
003f8003f800
007f0007f000
007f0007f000
007f0007f000
00fe000fe000
00fe000fe000
00fe000fe000
01fc001fc000
1ffffffc0000
1ffffffc0000
3ffffff80000
3ffffff80000
000000000000
000000000000
000000000000
000000000000
000000000000
000000000000
000000000000
000000000000
ENDCHAR
STARTCHAR U+0041
ENCODING 65
SWIDTH 1000 0
DWIDTH 34 0
BBX 47 40 -6 -8
BITMAP
000000000000
000000000000
000000000000
000000000000
000001fc0000
000001fc0000
000003f80000
000003f80000
00003fbf8000
00007f7f0000
00007f7f0000
00007f7f0000
000fe00fe000
000fe00fe000
000fe00fe000
001fc01fc000
01fc0001fc00
01fc0001fc00
03f80003f800
03f80003f800
03fffffff800
07fffffff000
07fffffff000
07fffffff000
0fe0000fe000
0fe0000fe000
0fe0000fe000
1fc0001fc000
1fc0001fc000
1fc0001fc000
3f80003f8000
3f80003f8000
000000000000
000000000000
000000000000
000000000000
000000000000
000000000000
000000000000
000000000000
ENDCHAR
STARTCHAR U+0040
ENCODING 64
SWIDTH 1000 0
DWIDTH 34 0
BBX 47 40 -6 -8
BITMAP
000000000000
000000000000
000000000000
000000000000
0001fffffc00
0001fffffc00
0003fffff800
0003fffff800
003f80003f80
007f00007f00
007f00007f00
007f00007f00
00fe0ffffe00
00fe0ffffe00
00fe0ffffe00
01fc1ffffc00
01fdfc1ffc00
01fdfc1ffc00
03fbf83ff800
03fbf83ff800
03f83ffbf800
07f07ff7f000
07f07ff7f000
07f07ff7f000
0fe000000000
0fe000000000
0fe000000000
1fc000000000
01fffffc0000
01fffffc0000
03fffff80000
03fffff80000
000000000000
000000000000
000000000000
000000000000
000000000000
000000000000
000000000000
000000000000
ENDCHAR
STARTCHAR U+003F
ENCODING 63
SWIDTH 1000 0
DWIDTH 34 0
BBX 47 40 -6 -8
BITMAP
000000000000
000000000000
000000000000
000000000000
0001fffffc00
0001fffffc00
0003fffff800
0003fffff800
003f80003f80
007f00007f00
007f00007f00
007f00007f00
000000ffe000
000000ffe000
000000ffe000
000001ffc000
00001fc00000
00001fc00000
00003f800000
00003f800000
00003f800000
00007f000000
00007f000000
00007f000000
000000000000
000000000000
000000000000
000000000000
0001fc000000
0001fc000000
0003f8000000
0003f8000000
000000000000
000000000000
000000000000
000000000000
000000000000
000000000000
000000000000
000000000000
ENDCHAR
STARTCHAR U+003E
ENCODING 62
SWIDTH 1000 0
DWIDTH 34 0
BBX 47 40 -6 -8
BITMAP
000000000000
000000000000
000000000000
000000000000
001fc0000000
001fc0000000
003f80000000
003f80000000
00003f800000
00007f000000
00007f000000
00007f000000
000000fe0000
000000fe0000
000000fe0000
000001fc0000
00000001fc00
00000001fc00
00000003f800
00000003f800
000003f80000
000007f00000
000007f00000
000007f00000
000fe0000000
000fe0000000
000fe0000000
001fc0000000
1fc000000000
1fc000000000
3f8000000000
3f8000000000
000000000000
000000000000
000000000000
000000000000
000000000000
000000000000
000000000000
000000000000
ENDCHAR
STARTCHAR U+003D
ENCODING 61
SWIDTH 1000 0
DWIDTH 34 0
BBX 47 40 -6 -8
BITMAP
000000000000
000000000000
000000000000
000000000000
000000000000
000000000000
000000000000
000000000000
000000000000
000000000000
000000000000
000000000000
00fffffffe00
00fffffffe00
00fffffffe00
01fffffffc00
000000000000
000000000000
000000000000
000000000000
03fffffff800
07fffffff000
07fffffff000
07fffffff000
000000000000
000000000000
000000000000
000000000000
000000000000
000000000000
000000000000
000000000000
000000000000
000000000000
000000000000
000000000000
000000000000
000000000000
000000000000
000000000000
ENDCHAR
STARTCHAR U+003C
ENCODING 60
SWIDTH 1000 0
DWIDTH 34 0
BBX 47 40 -6 -8
BITMAP
000000000000
000000000000
000000000000
000000000000
000000001fc0
000000001fc0
000000003f80
000000003f80
0000003f8000
0000007f0000
0000007f0000
0000007f0000
0000fe000000
0000fe000000
0000fe000000
0001fc000000
01fc00000000
01fc00000000
03f800000000
03f800000000
0003f8000000
0007f0000000
0007f0000000
0007f0000000
00000fe00000
00000fe00000
00000fe00000
00001fc00000
0000001fc000
0000001fc000
0000003f8000
0000003f8000
000000000000
000000000000
000000000000
000000000000
000000000000
000000000000
000000000000
000000000000
ENDCHAR
STARTCHAR U+003B
ENCODING 59
SWIDTH 1000 0
DWIDTH 34 0
BBX 47 40 -6 -8
BITMAP
000000000000
000000000000
000000000000
000000000000
000000000000
000000000000
000000000000
000000000000
00003ff80000
00007ff00000
00007ff00000
00007ff00000
0000ffe00000
0000ffe00000
0000ffe00000
0001ffc00000
000000000000
000000000000
000000000000
000000000000
000000000000
000000000000
000000000000
000000000000
000ffe000000
000ffe000000
000ffe000000
001ffc000000
001fc0000000
001fc0000000
003f80000000
003f80000000
03f800000000
07f000000000
07f000000000
07f000000000
000000000000
000000000000
000000000000
000000000000
ENDCHAR
STARTCHAR U+003A
ENCODING 58
SWIDTH 1000 0
DWIDTH 34 0
BBX 47 40 -6 -8
BITMAP
000000000000
000000000000
000000000000
000000000000
000000000000
000000000000
000000000000
000000000000
00003ff80000
00007ff00000
00007ff00000
00007ff00000
0000ffe00000
0000ffe00000
0000ffe00000
0001ffc00000
000000000000
000000000000
000000000000
000000000000
000000000000
000000000000
000000000000
000000000000
000ffe000000
000ffe000000
000ffe000000
001ffc000000
001ffc000000
001ffc000000
003ff8000000
003ff8000000
000000000000
000000000000
000000000000
000000000000
000000000000
000000000000
000000000000
000000000000
ENDCHAR
STARTCHAR U+0039
ENCODING 57
SWIDTH 1000 0
DWIDTH 34 0
BBX 47 40 -6 -8
BITMAP
000000000000
000000000000
000000000000
000000000000
0001fffffc00
0001fffffc00
0003fffff800
0003fffff800
003f80003f80
007f00007f00
007f00007f00
007f00007f00
00fe000ffe00
00fe000ffe00
00fe000ffe00
01fc001ffc00
001ffffdfc00
001ffffdfc00
003ffffbf800
003ffffbf800
00000003f800
00000007f000
00000007f000
00000007f000
000000fe0000
000000fe0000
000000fe0000
000001fc0000
01ffffc00000
01ffffc00000
03ffff800000
03ffff800000
000000000000
000000000000
000000000000
000000000000
000000000000
000000000000
000000000000
000000000000
ENDCHAR
STARTCHAR U+0038
ENCODING 56
SWIDTH 1000 0
DWIDTH 34 0
BBX 47 40 -6 -8
BITMAP
000000000000
000000000000
000000000000
000000000000
0001fffffc00
0001fffffc00
0003fffff800
0003fffff800
003f80003f80
007f00007f00
007f00007f00
007f00007f00
00fe0000fe00
00fe0000fe00
00fe0000fe00
01fc0001fc00
001fffffc000
001fffffc000
003fffff8000
003fffff8000
03f80003f800
07f00007f000
07f00007f000
07f00007f000
0fe0000fe000
0fe0000fe000
0fe0000fe000
1fc0001fc000
01fffffc0000
01fffffc0000
03fffff80000
03fffff80000
000000000000
000000000000
000000000000
000000000000
000000000000
000000000000
000000000000
000000000000
ENDCHAR
STARTCHAR U+0037
ENCODING 55
SWIDTH 1000 0
DWIDTH 34 0
BBX 47 40 -6 -8
BITMAP
000000000000
000000000000
000000000000
000000000000
001fffffffc0
001fffffffc0
003fffffff80
003fffffff80
000000003f80
000000007f00
000000007f00
000000007f00
0000000fe000
0000000fe000
0000000fe000
0000001fc000
000001fc0000
000001fc0000
000003f80000
000003f80000
00003f800000
00007f000000
00007f000000
00007f000000
000fe0000000
000fe0000000
000fe0000000
001fc0000000
001fc0000000
001fc0000000
003f80000000
003f80000000
000000000000
000000000000
000000000000
000000000000
000000000000
000000000000
000000000000
000000000000
ENDCHAR
STARTCHAR U+0036
ENCODING 54
SWIDTH 1000 0
DWIDTH 34 0
BBX 47 40 -6 -8
BITMAP
000000000000
000000000000
000000000000
000000000000
00001ffffc00
00001ffffc00
00003ffff800
00003ffff800
0003f8000000
0007f0000000
0007f0000000
0007f0000000
00fe00000000
00fe00000000
00fe00000000
01fc00000000
01fdffffc000
01fdffffc000
03fbffff8000
03fbffff8000
03ff8003f800
07ff0007f000
07ff0007f000
07ff0007f000
0fe0000fe000
0fe0000fe000
0fe0000fe000
1fc0001fc000
01fffffc0000
01fffffc0000
03fffff80000
03fffff80000
000000000000
000000000000
000000000000
000000000000
000000000000
000000000000
000000000000
000000000000
ENDCHAR
STARTCHAR U+0035
ENCODING 53
SWIDTH 1000 0
DWIDTH 34 0
BBX 47 40 -6 -8
BITMAP
000000000000
000000000000
000000000000
000000000000
001fffffffc0
001fffffffc0
003fffffff80
003fffffff80
003f80000000
007f00000000
007f00000000
007f00000000
00feffffe000
00feffffe000
00feffffe000
01fdffffc000
01ffc001fc00
01ffc001fc00
03ff8003f800
03ff8003f800
00000003f800
00000007f000
00000007f000
00000007f000
0fe0000fe000
0fe0000fe000
0fe0000fe000
1fc0001fc000
01fffffc0000
01fffffc0000
03fffff80000
03fffff80000
000000000000
000000000000
000000000000
000000000000
000000000000
000000000000
000000000000
000000000000
ENDCHAR
STARTCHAR U+0034
ENCODING 52
SWIDTH 1000 0
DWIDTH 34 0
BBX 47 40 -6 -8
BITMAP
000000000000
000000000000
000000000000
000000000000
0000001fc000
0000001fc000
0000003f8000
0000003f8000
000003ff8000
000007ff0000
000007ff0000
000007ff0000
0000fefe0000
0000fefe0000
0000fefe0000
0001fdfc0000
001fc1fc0000
001fc1fc0000
003f83f80000
003f83f80000
03fffffff800
07fffffff000
07fffffff000
07fffffff000
00000fe00000
00000fe00000
00000fe00000
00001fc00000
00001fc00000
00001fc00000
00003f800000
00003f800000
000000000000
000000000000
000000000000
000000000000
000000000000
000000000000
000000000000
000000000000
ENDCHAR
STARTCHAR U+0033
ENCODING 51
SWIDTH 1000 0
DWIDTH 34 0
BBX 47 40 -6 -8
BITMAP
000000000000
000000000000
000000000000
000000000000
001fffffffc0
001fffffffc0
003fffffff80
003fffffff80
00000003f800
00000007f000
00000007f000
00000007f000
000000fe0000
000000fe0000
000000fe0000
000001fc0000
00001fffc000
00001fffc000
00003fff8000
00003fff8000
00000003f800
00000007f000
00000007f000
00000007f000
0fe0000fe000
0fe0000fe000
0fe0000fe000
1fc0001fc000
01fffffc0000
01fffffc0000
03fffff80000
03fffff80000
000000000000
000000000000
000000000000
000000000000
000000000000
000000000000
000000000000
000000000000
ENDCHAR
STARTCHAR U+0032
ENCODING 50
SWIDTH 1000 0
DWIDTH 34 0
BBX 47 40 -6 -8
BITMAP
000000000000
000000000000
000000000000
000000000000
0001fffffc00
0001fffffc00
0003fffff800
0003fffff800
003f80003f80
007f00007f00
007f00007f00
007f00007f00
00000000fe00
00000000fe00
00000000fe00
00000001fc00
00001fffc000
00001fffc000
00003fff8000
00003fff8000
003ff8000000
007ff0000000
007ff0000000
007ff0000000
0fe000000000
0fe000000000
0fe000000000
1fc000000000
1fffffffc000
1fffffffc000
3fffffff8000
3fffffff8000
000000000000
000000000000
000000000000
000000000000
000000000000
000000000000
000000000000
000000000000
ENDCHAR
STARTCHAR U+0031
ENCODING 49
SWIDTH 1000 0
DWIDTH 34 0
BBX 47 40 -6 -8
BITMAP
000000000000
000000000000
000000000000
000000000000
000001fc0000
000001fc0000
000003f80000
000003f80000
00003ff80000
00007ff00000
00007ff00000
00007ff00000
000fefe00000
000fefe00000
000fefe00000
001fdfc00000
00001fc00000
00001fc00000
00003f800000
00003f800000
00003f800000
00007f000000
00007f000000
00007f000000
0000fe000000
0000fe000000
0000fe000000
0001fc000000
01fffffc0000
01fffffc0000
03fffff80000
03fffff80000
000000000000
000000000000
000000000000
000000000000
000000000000
000000000000
000000000000
000000000000
ENDCHAR
STARTCHAR U+0030
ENCODING 48
SWIDTH 1000 0
DWIDTH 34 0
BBX 47 40 -6 -8
BITMAP
000000000000
000000000000
000000000000
000000000000
00001fffc000
00001fffc000
00003fff8000
00003fff8000
0003f803f800
0007f007f000
0007f007f000
0007f007f000
00fe0000fe00
00fe0000fe00
00fe0000fe00
01fc0001fc00
01fc0001fc00
01fc0001fc00
03f80003f800
03f80003f800
03f80003f800
07f00007f000
07f00007f000
07f00007f000
00fe00fe0000
00fe00fe0000
00fe00fe0000
01fc01fc0000
001fffc00000
001fffc00000
003fff800000
003fff800000
000000000000
000000000000
000000000000
000000000000
000000000000
000000000000
000000000000
000000000000
ENDCHAR
STARTCHAR U+002F
ENCODING 47
SWIDTH 1000 0
DWIDTH 34 0
BBX 47 40 -6 -8
BITMAP
000000000000
000000000000
000000000000
000000000000
000000001fc0
000000001fc0
000000003f80
000000003f80
00000003f800
00000007f000
00000007f000
00000007f000
000000fe0000
000000fe0000
000000fe0000
000001fc0000
00001fc00000
00001fc00000
00003f800000
00003f800000
0003f8000000
0007f0000000
0007f0000000
0007f0000000
00fe00000000
00fe00000000
00fe00000000
01fc00000000
1fc000000000
1fc000000000
3f8000000000
3f8000000000
000000000000
000000000000
000000000000
000000000000
000000000000
000000000000
000000000000
000000000000
ENDCHAR
STARTCHAR U+002E
ENCODING 46
SWIDTH 1000 0
DWIDTH 34 0
BBX 47 40 -6 -8
BITMAP
000000000000
000000000000
000000000000
000000000000
000000000000
000000000000
000000000000
000000000000
000000000000
000000000000
000000000000
000000000000
000000000000
000000000000
000000000000
000000000000
000000000000
000000000000
000000000000
000000000000
000000000000
000000000000
000000000000
000000000000
000ffe000000
000ffe000000
000ffe000000
001ffc000000
001ffc000000
001ffc000000
003ff8000000
003ff8000000
000000000000
000000000000
000000000000
000000000000
000000000000
000000000000
000000000000
000000000000
ENDCHAR
STARTCHAR U+002D
ENCODING 45
SWIDTH 1000 0
DWIDTH 34 0
BBX 47 40 -6 -8
BITMAP
000000000000
000000000000
000000000000
000000000000
000000000000
000000000000
000000000000
000000000000
000000000000
000000000000
000000000000
000000000000
000000000000
000000000000
000000000000
000000000000
01fffffffc00
01fffffffc00
03fffffff800
03fffffff800
000000000000
000000000000
000000000000
000000000000
000000000000
000000000000
000000000000
000000000000
000000000000
000000000000
000000000000
000000000000
000000000000
000000000000
000000000000
000000000000
000000000000
000000000000
000000000000
000000000000
ENDCHAR
STARTCHAR U+002C
ENCODING 44
SWIDTH 1000 0
DWIDTH 34 0
BBX 47 40 -6 -8
BITMAP
000000000000
000000000000
000000000000
000000000000
000000000000
000000000000
000000000000
000000000000
000000000000
000000000000
000000000000
000000000000
000000000000
000000000000
000000000000
000000000000
000000000000
000000000000
000000000000
000000000000
000000000000
000000000000
000000000000
000000000000
000ffe000000
000ffe000000
000ffe000000
001ffc000000
001fc0000000
001fc0000000
003f80000000
003f80000000
03f800000000
07f000000000
07f000000000
07f000000000
000000000000
000000000000
000000000000
000000000000
ENDCHAR
STARTCHAR U+002B
ENCODING 43
SWIDTH 1000 0
DWIDTH 34 0
BBX 47 40 -6 -8
BITMAP
000000000000
000000000000
000000000000
000000000000
000000000000
000000000000
000000000000
000000000000
000003f80000
000007f00000
000007f00000
000007f00000
00000fe00000
00000fe00000
00000fe00000
00001fc00000
01fffffffc00
01fffffffc00
03fffffff800
03fffffff800
00003f800000
00007f000000
00007f000000
00007f000000
0000fe000000
0000fe000000
0000fe000000
0001fc000000
000000000000
000000000000
000000000000
000000000000
000000000000
000000000000
000000000000
000000000000
000000000000
000000000000
000000000000
000000000000
ENDCHAR
STARTCHAR U+002A
ENCODING 42
SWIDTH 1000 0
DWIDTH 34 0
BBX 47 40 -6 -8
BITMAP
000000000000
000000000000
000000000000
000000000000
000000000000
000000000000
000000000000
000000000000
0003f803f800
0007f007f000
0007f007f000
0007f007f000
0000fefe0000
0000fefe0000
0000fefe0000
0001fdfc0000
01fffffffc00
01fffffffc00
03fffffff800
03fffffff800
0003fbf80000
0007f7f00000
0007f7f00000
0007f7f00000
00fe00fe0000
00fe00fe0000
00fe00fe0000
01fc01fc0000
000000000000
000000000000
000000000000
000000000000
000000000000
000000000000
000000000000
000000000000
000000000000
000000000000
000000000000
000000000000
ENDCHAR
STARTCHAR U+0029
ENCODING 41
SWIDTH 1000 0
DWIDTH 34 0
BBX 47 40 -6 -8
BITMAP
000000000000
000000000000
000000000000
000000000000
00001fc00000
00001fc00000
00003f800000
00003f800000
000003f80000
000007f00000
000007f00000
000007f00000
000000fe0000
000000fe0000
000000fe0000
000001fc0000
000001fc0000
000001fc0000
000003f80000
000003f80000
000003f80000
000007f00000
000007f00000
000007f00000
0000fe000000
0000fe000000
0000fe000000
0001fc000000
001fc0000000
001fc0000000
003f80000000
003f80000000
000000000000
000000000000
000000000000
000000000000
000000000000
000000000000
000000000000
000000000000
ENDCHAR
STARTCHAR U+0028
ENCODING 40
SWIDTH 1000 0
DWIDTH 34 0
BBX 47 40 -6 -8
BITMAP
000000000000
000000000000
000000000000
000000000000
0000001fc000
0000001fc000
0000003f8000
0000003f8000
000003f80000
000007f00000
000007f00000
000007f00000
0000fe000000
0000fe000000
0000fe000000
0001fc000000
0001fc000000
0001fc000000
0003f8000000
0003f8000000
0003f8000000
0007f0000000
0007f0000000
0007f0000000
0000fe000000
0000fe000000
0000fe000000
0001fc000000
00001fc00000
00001fc00000
00003f800000
00003f800000
000000000000
000000000000
000000000000
000000000000
000000000000
000000000000
000000000000
000000000000
ENDCHAR
STARTCHAR U+0027
ENCODING 39
SWIDTH 1000 0
DWIDTH 34 0
BBX 47 40 -6 -8
BITMAP
000000000000
000000000000
000000000000
000000000000
000001ffc000
000001ffc000
000003ff8000
000003ff8000
000003f80000
000007f00000
000007f00000
000007f00000
0000fe000000
0000fe000000
0000fe000000
0001fc000000
000000000000
000000000000
000000000000
000000000000
000000000000
000000000000
000000000000
000000000000
000000000000
000000000000
000000000000
000000000000
000000000000
000000000000
000000000000
000000000000
000000000000
000000000000
000000000000
000000000000
000000000000
000000000000
000000000000
000000000000
ENDCHAR
STARTCHAR U+0026
ENCODING 38
SWIDTH 1000 0
DWIDTH 34 0
BBX 47 40 -6 -8
BITMAP
000000000000
000000000000
000000000000
000000000000
0001fffc0000
0001fffc0000
0003fff80000
0003fff80000
003f803f8000
007f007f0000
007f007f0000
007f007f0000
00fe00fe0000
00fe00fe0000
00fe00fe0000
01fc01fc0000
001fffc00000
001fffc00000
003fff800000
003fff800000
03f803fbf800
07f007f7f000
07f007f7f000
07f007f7f000
0fe000fe0000
0fe000fe0000
0fe000fe0000
1fc001fc0000
01ffffdfc000
01ffffdfc000
03ffffbf8000
03ffffbf8000
000000000000
000000000000
000000000000
000000000000
000000000000
000000000000
000000000000
000000000000
ENDCHAR
STARTCHAR U+0025
ENCODING 37
SWIDTH 1000 0
DWIDTH 34 0
BBX 47 40 -6 -8
BITMAP
000000000000
000000000000
000000000000
000000000000
0001fc001fc0
0001fc001fc0
0003f8003f80
0003f8003f80
003fbf83f800
007f7f07f000
007f7f07f000
007f7f07f000
000fe0fe0000
000fe0fe0000
000fe0fe0000
001fc1fc0000
00001fc00000
00001fc00000
00003f800000
00003f800000
0003f83f8000
0007f07f0000
0007f07f0000
0007f07f0000
00fe0fefe000
00fe0fefe000
00fe0fefe000
01fc1fdfc000
1fc001fc0000
1fc001fc0000
3f8003f80000
3f8003f80000
000000000000
000000000000
000000000000
000000000000
000000000000
000000000000
000000000000
000000000000
ENDCHAR
STARTCHAR U+0024
ENCODING 36
SWIDTH 1000 0
DWIDTH 34 0
BBX 47 40 -6 -8
BITMAP
000000000000
000000000000
000000000000
000000000000
000001fc0000
000001fc0000
000003f80000
000003f80000
0003fffff800
0007fffff000
0007fffff000
0007fffff000
00fe0fe00000
00fe0fe00000
00fe0fe00000
01fc1fc00000
001fffffc000
001fffffc000
003fffff8000
003fffff8000
00003f83f800
00007f07f000
00007f07f000
00007f07f000
00fffffe0000
00fffffe0000
00fffffe0000
01fffffc0000
0001fc000000
0001fc000000
0003f8000000
0003f8000000
000000000000
000000000000
000000000000
000000000000
000000000000
000000000000
000000000000
000000000000
ENDCHAR
STARTCHAR U+0023
ENCODING 35
SWIDTH 1000 0
DWIDTH 34 0
BBX 47 40 -6 -8
BITMAP
000000000000
000000000000
000000000000
000000000000
0001fc1fc000
0001fc1fc000
0003f83f8000
0003f83f8000
0003f83f8000
0007f07f0000
0007f07f0000
0007f07f0000
00ffffffe000
00ffffffe000
00ffffffe000
01ffffffc000
001fc1fc0000
001fc1fc0000
003f83f80000
003f83f80000
03ffffff8000
07ffffff0000
07ffffff0000
07ffffff0000
00fe0fe00000
00fe0fe00000
00fe0fe00000
01fc1fc00000
01fc1fc00000
01fc1fc00000
03f83f800000
03f83f800000
000000000000
000000000000
000000000000
000000000000
000000000000
000000000000
000000000000
000000000000
ENDCHAR
STARTCHAR U+0022
ENCODING 34
SWIDTH 1000 0
DWIDTH 34 0
BBX 47 40 -6 -8
BITMAP
000000000000
000000000000
000000000000
000000000000
0001fc1fc000
0001fc1fc000
0003f83f8000
0003f83f8000
0003f83f8000
0007f07f0000
0007f07f0000
0007f07f0000
000fe0fe0000
000fe0fe0000
000fe0fe0000
001fc1fc0000
000000000000
000000000000
000000000000
000000000000
000000000000
000000000000
000000000000
000000000000
000000000000
000000000000
000000000000
000000000000
000000000000
000000000000
000000000000
000000000000
000000000000
000000000000
000000000000
000000000000
000000000000
000000000000
000000000000
000000000000
ENDCHAR
STARTCHAR U+0021
ENCODING 33
SWIDTH 1000 0
DWIDTH 34 0
BBX 47 40 -6 -8
BITMAP
000000000000
000000000000
000000000000
000000000000
000001fc0000
000001fc0000
000003f80000
000003f80000
000003f80000
000007f00000
000007f00000
000007f00000
00000fe00000
00000fe00000
00000fe00000
00001fc00000
00001fc00000
00001fc00000
00003f800000
00003f800000
00003f800000
00007f000000
00007f000000
00007f000000
000000000000
000000000000
000000000000
000000000000
0001fc000000
0001fc000000
0003f8000000
0003f8000000
000000000000
000000000000
000000000000
000000000000
000000000000
000000000000
000000000000
000000000000
ENDCHAR
STARTCHAR U+2E2E
ENCODING 11822
SWIDTH 1000 0
DWIDTH 34 0
BBX 47 40 -6 -8
BITMAP
000000000000
000000000000
000000000000
000000000000
0001fffffc00
0001fffffc00
0003fffff800
0003fffff800
003f80003f80
007f00007f00
007f00007f00
007f00007f00
000ffe000000
000ffe000000
000ffe000000
001ffc000000
00001fc00000
00001fc00000
00003f800000
00003f800000
00003f800000
00007f000000
00007f000000
00007f000000
000000000000
000000000000
000000000000
000000000000
0001fc000000
0001fc000000
0003f8000000
0003f8000000
000000000000
000000000000
000000000000
000000000000
000000000000
000000000000
000000000000
000000000000
ENDCHAR
STARTCHAR U+00b7
ENCODING 183
SWIDTH 1000 0
DWIDTH 34 0
BBX 47 40 -6 -8
BITMAP
000000000000
000000000000
000000000000
000000000000
000000000000
000000000000
000000000000
000000000000
000000000000
000000000000
000000000000
000000000000
000000000000
000000000000
000000000000
000000000000
00001fc00000
00001fc00000
00003f800000
00003f800000
000000000000
000000000000
000000000000
000000000000
000000000000
000000000000
000000000000
000000000000
000000000000
000000000000
000000000000
000000000000
000000000000
000000000000
000000000000
000000000000
000000000000
000000000000
000000000000
000000000000
ENDCHAR
STARTCHAR U+00A3
ENCODING 163
SWIDTH 1000 0
DWIDTH 34 0
BBX 47 40 -6 -8
BITMAP
000000000000
000000000000
000000000000
000000000000
000001fffc00
000001fffc00
000003fff800
000003fff800
00003f803f80
00007f007f00
00007f007f00
00007f007f00
0000fe000000
0000fe000000
0000fe000000
0001fc000000
01fffffc0000
01fffffc0000
03fffff80000
03fffff80000
0003f8000000
0007f0000000
0007f0000000
0007f0000000
00ffffe00000
00ffffe00000
00ffffe00000
01ffffc00000
1fdfc1ffc000
1fdfc1ffc000
3fbf83ff8000
3fbf83ff8000
03f800000000
07f000000000
07f000000000
07f000000000
000000000000
000000000000
000000000000
000000000000
ENDCHAR
STARTCHAR U+2260
ENCODING 8800
SWIDTH 1000 0
DWIDTH 34 0
BBX 47 40 -6 -8
BITMAP
000000000000
000000000000
000000000000
000000000000
000000001fc0
000000001fc0
000000003f80
000000003f80
00000003f800
00000007f000
00000007f000
00000007f000
00fffffffe00
00fffffffe00
00fffffffe00
01fffffffc00
00001fc00000
00001fc00000
00003f800000
00003f800000
03fffffff800
07fffffff000
07fffffff000
07fffffff000
00fe00000000
00fe00000000
00fe00000000
01fc00000000
1fc000000000
1fc000000000
3f8000000000
3f8000000000
000000000000
000000000000
000000000000
000000000000
000000000000
000000000000
000000000000
000000000000
ENDCHAR
STARTCHAR U+03C0
ENCODING 960
SWIDTH 1000 0
DWIDTH 34 0
BBX 47 40 -6 -8
BITMAP
000000000000
000000000000
000000000000
000000000000
000000000000
000000000000
000000000000
000000000000
000000000000
000000000000
000000000000
000000000000
00fffffffe00
00fffffffe00
00fffffffe00
01fffffffc00
0001fc1fc000
0001fc1fc000
0003f83f8000
0003f83f8000
0003f83f8000
0007f07f0000
0007f07f0000
0007f07f0000
000fe0fe0000
000fe0fe0000
000fe0fe0000
001fc1fc0000
01fc01fc0000
01fc01fc0000
03f803f80000
03f803f80000
000000000000
000000000000
000000000000
000000000000
000000000000
000000000000
000000000000
000000000000
ENDCHAR
STARTCHAR U+2265
ENCODING 8805
SWIDTH 1000 0
DWIDTH 34 0
BBX 47 40 -6 -8
BITMAP
000000000000
000000000000
000000000000
000000000000
001fc0000000
001fc0000000
003f80000000
003f80000000
00003f800000
00007f000000
00007f000000
00007f000000
000000fe0000
000000fe0000
000000fe0000
000001fc0000
00000001fc00
00000001fc00
00000003f800
00000003f800
000003f80000
000007f00000
000007f00000
000007f00000
000fe0000000
000fe0000000
000fe0000000
001fc0000000
1fc000000000
1fc000000000
3f8000000000
3f8000000000
3fffffff8000
7fffffff0000
7fffffff0000
7fffffff0000
000000000000
000000000000
000000000000
000000000000
ENDCHAR
STARTCHAR U+2264
ENCODING 8804
SWIDTH 1000 0
DWIDTH 34 0
BBX 47 40 -6 -8
BITMAP
000000000000
000000000000
000000000000
000000000000
000000001fc0
000000001fc0
000000003f80
000000003f80
0000003f8000
0000007f0000
0000007f0000
0000007f0000
0000fe000000
0000fe000000
0000fe000000
0001fc000000
01fc00000000
01fc00000000
03f800000000
03f800000000
0003f8000000
0007f0000000
0007f0000000
0007f0000000
00000fe00000
00000fe00000
00000fe00000
00001fc00000
0000001fc000
0000001fc000
0000003f8000
0000003f8000
3fffffff8000
7fffffff0000
7fffffff0000
7fffffff0000
000000000000
000000000000
000000000000
000000000000
ENDCHAR
STARTCHAR U+2502
ENCODING 9474
SWIDTH 1000 0
DWIDTH 34 0
BBX 47 40 -6 -8
BITMAP
000000fe0000
000000fe0000
000000fe0000
000001fc0000
000001fc0000
000001fc0000
000003f80000
000003f80000
000003f80000
000007f00000
000007f00000
000007f00000
00000fe00000
00000fe00000
00000fe00000
00001fc00000
00001fc00000
00001fc00000
00003f800000
00003f800000
00003f800000
00007f000000
00007f000000
00007f000000
0000fe000000
0000fe000000
0000fe000000
0001fc000000
0001fc000000
0001fc000000
0003f8000000
0003f8000000
0003f8000000
0007f0000000
0007f0000000
0007f0000000
000fe0000000
000fe0000000
000fe0000000
001fc0000000
ENDCHAR
STARTCHAR U+252C
ENCODING 9516
SWIDTH 1000 0
DWIDTH 34 0
BBX 47 40 -6 -8
BITMAP
000000000000
000000000000
000000000000
000000000000
000000000000
000000000000
000000000000
000000000000
000000000000
000000000000
000000000000
000000000000
000000000000
000000000000
000000000000
000000000000
01ffffffffc0
01ffffffffc0
03ffffffff80
03ffffffff80
00003f800000
00007f000000
00007f000000
00007f000000
0000fe000000
0000fe000000
0000fe000000
0001fc000000
0001fc000000
0001fc000000
0003f8000000
0003f8000000
0003f8000000
0007f0000000
0007f0000000
0007f0000000
000fe0000000
000fe0000000
000fe0000000
001fc0000000
ENDCHAR
STARTCHAR U+2534
ENCODING 9524
SWIDTH 1000 0
DWIDTH 34 0
BBX 47 40 -6 -8
BITMAP
000000fe0000
000000fe0000
000000fe0000
000001fc0000
000001fc0000
000001fc0000
000003f80000
000003f80000
000003f80000
000007f00000
000007f00000
000007f00000
00000fe00000
00000fe00000
00000fe00000
00001fc00000
01ffffffffc0
01ffffffffc0
03ffffffff80
03ffffffff80
000000000000
000000000000
000000000000
000000000000
000000000000
000000000000
000000000000
000000000000
000000000000
000000000000
000000000000
000000000000
000000000000
000000000000
000000000000
000000000000
000000000000
000000000000
000000000000
000000000000
ENDCHAR
STARTCHAR U+2524
ENCODING 9508
SWIDTH 1000 0
DWIDTH 34 0
BBX 47 40 -6 -8
BITMAP
000000fe0000
000000fe0000
000000fe0000
000001fc0000
000001fc0000
000001fc0000
000003f80000
000003f80000
000003f80000
000007f00000
000007f00000
000007f00000
00000fe00000
00000fe00000
00000fe00000
00001fc00000
01ffffc00000
01ffffc00000
03ffff800000
03ffff800000
00003f800000
00007f000000
00007f000000
00007f000000
0000fe000000
0000fe000000
0000fe000000
0001fc000000
0001fc000000
0001fc000000
0003f8000000
0003f8000000
0003f8000000
0007f0000000
0007f0000000
0007f0000000
000fe0000000
000fe0000000
000fe0000000
001fc0000000
ENDCHAR
STARTCHAR U+251C
ENCODING 9500
SWIDTH 1000 0
DWIDTH 34 0
BBX 47 40 -6 -8
BITMAP
000000fe0000
000000fe0000
000000fe0000
000001fc0000
000001fc0000
000001fc0000
000003f80000
000003f80000
000003f80000
000007f00000
000007f00000
000007f00000
00000fe00000
00000fe00000
00000fe00000
00001fc00000
00001fffffc0
00001fffffc0
00003fffff80
00003fffff80
00003f800000
00007f000000
00007f000000
00007f000000
0000fe000000
0000fe000000
0000fe000000
0001fc000000
0001fc000000
0001fc000000
0003f8000000
0003f8000000
0003f8000000
0007f0000000
0007f0000000
0007f0000000
000fe0000000
000fe0000000
000fe0000000
001fc0000000
ENDCHAR
STARTCHAR U+23BD
ENCODING 9149
SWIDTH 1000 0
DWIDTH 34 0
BBX 47 40 -6 -8
BITMAP
000000000000
000000000000
000000000000
000000000000
000000000000
000000000000
000000000000
000000000000
000000000000
000000000000
000000000000
000000000000
000000000000
000000000000
000000000000
000000000000
000000000000
000000000000
000000000000
000000000000
000000000000
000000000000
000000000000
000000000000
000000000000
000000000000
000000000000
000000000000
000000000000
000000000000
000000000000
000000000000
3ffffffff800
7ffffffff000
7ffffffff000
7ffffffff000
000000000000
000000000000
000000000000
000000000000
ENDCHAR
STARTCHAR U+23BC
ENCODING 9148
SWIDTH 1000 0
DWIDTH 34 0
BBX 47 40 -6 -8
BITMAP
000000000000
000000000000
000000000000
000000000000
000000000000
000000000000
000000000000
000000000000
000000000000
000000000000
000000000000
000000000000
000000000000
000000000000
000000000000
000000000000
000000000000
000000000000
000000000000
000000000000
000000000000
000000000000
000000000000
000000000000
0ffffffffe00
0ffffffffe00
0ffffffffe00
1ffffffffc00
000000000000
000000000000
000000000000
000000000000
000000000000
000000000000
000000000000
000000000000
000000000000
000000000000
000000000000
000000000000
ENDCHAR
STARTCHAR U+2500
ENCODING 9472
SWIDTH 1000 0
DWIDTH 34 0
BBX 47 40 -6 -8
BITMAP
000000000000
000000000000
000000000000
000000000000
000000000000
000000000000
000000000000
000000000000
000000000000
000000000000
000000000000
000000000000
000000000000
000000000000
000000000000
000000000000
01ffffffffc0
01ffffffffc0
03ffffffff80
03ffffffff80
000000000000
000000000000
000000000000
000000000000
000000000000
000000000000
000000000000
000000000000
000000000000
000000000000
000000000000
000000000000
000000000000
000000000000
000000000000
000000000000
000000000000
000000000000
000000000000
000000000000
ENDCHAR
STARTCHAR U+23BB
ENCODING 9147
SWIDTH 1000 0
DWIDTH 34 0
BBX 47 40 -6 -8
BITMAP
000000000000
000000000000
000000000000
000000000000
000000000000
000000000000
000000000000
000000000000
003ffffffff8
007ffffffff0
007ffffffff0
007ffffffff0
000000000000
000000000000
000000000000
000000000000
000000000000
000000000000
000000000000
000000000000
000000000000
000000000000
000000000000
000000000000
000000000000
000000000000
000000000000
000000000000
000000000000
000000000000
000000000000
000000000000
000000000000
000000000000
000000000000
000000000000
000000000000
000000000000
000000000000
000000000000
ENDCHAR
STARTCHAR U+23BA
ENCODING 9146
SWIDTH 1000 0
DWIDTH 34 0
BBX 47 40 -6 -8
BITMAP
000ffffffffe
000ffffffffe
000ffffffffe
001ffffffffc
000000000000
000000000000
000000000000
000000000000
000000000000
000000000000
000000000000
000000000000
000000000000
000000000000
000000000000
000000000000
000000000000
000000000000
000000000000
000000000000
000000000000
000000000000
000000000000
000000000000
000000000000
000000000000
000000000000
000000000000
000000000000
000000000000
000000000000
000000000000
000000000000
000000000000
000000000000
000000000000
000000000000
000000000000
000000000000
000000000000
ENDCHAR
STARTCHAR U+253C
ENCODING 9532
SWIDTH 1000 0
DWIDTH 34 0
BBX 47 40 -6 -8
BITMAP
000000fe0000
000000fe0000
000000fe0000
000001fc0000
000001fc0000
000001fc0000
000003f80000
000003f80000
000003f80000
000007f00000
000007f00000
000007f00000
00000fe00000
00000fe00000
00000fe00000
00001fc00000
01ffffffffc0
01ffffffffc0
03ffffffff80
03ffffffff80
00003f800000
00007f000000
00007f000000
00007f000000
0000fe000000
0000fe000000
0000fe000000
0001fc000000
0001fc000000
0001fc000000
0003f8000000
0003f8000000
0003f8000000
0007f0000000
0007f0000000
0007f0000000
000fe0000000
000fe0000000
000fe0000000
001fc0000000
ENDCHAR
STARTCHAR U+2514
ENCODING 9492
SWIDTH 1000 0
DWIDTH 34 0
BBX 47 40 -6 -8
BITMAP
000000fe0000
000000fe0000
000000fe0000
000001fc0000
000001fc0000
000001fc0000
000003f80000
000003f80000
000003f80000
000007f00000
000007f00000
000007f00000
00000fe00000
00000fe00000
00000fe00000
00001fc00000
00001fffffc0
00001fffffc0
00003fffff80
00003fffff80
000000000000
000000000000
000000000000
000000000000
000000000000
000000000000
000000000000
000000000000
000000000000
000000000000
000000000000
000000000000
000000000000
000000000000
000000000000
000000000000
000000000000
000000000000
000000000000
000000000000
ENDCHAR
STARTCHAR U+250C
ENCODING 9484
SWIDTH 1000 0
DWIDTH 34 0
BBX 47 40 -6 -8
BITMAP
000000000000
000000000000
000000000000
000000000000
000000000000
000000000000
000000000000
000000000000
000000000000
000000000000
000000000000
000000000000
000000000000
000000000000
000000000000
000000000000
00001fffffc0
00001fffffc0
00003fffff80
00003fffff80
00003f800000
00007f000000
00007f000000
00007f000000
0000fe000000
0000fe000000
0000fe000000
0001fc000000
0001fc000000
0001fc000000
0003f8000000
0003f8000000
0003f8000000
0007f0000000
0007f0000000
0007f0000000
000fe0000000
000fe0000000
000fe0000000
001fc0000000
ENDCHAR
STARTCHAR U+2510
ENCODING 9488
SWIDTH 1000 0
DWIDTH 34 0
BBX 47 40 -6 -8
BITMAP
000000000000
000000000000
000000000000
000000000000
000000000000
000000000000
000000000000
000000000000
000000000000
000000000000
000000000000
000000000000
000000000000
000000000000
000000000000
000000000000
01ffffc00000
01ffffc00000
03ffff800000
03ffff800000
00003f800000
00007f000000
00007f000000
00007f000000
0000fe000000
0000fe000000
0000fe000000
0001fc000000
0001fc000000
0001fc000000
0003f8000000
0003f8000000
0003f8000000
0007f0000000
0007f0000000
0007f0000000
000fe0000000
000fe0000000
000fe0000000
001fc0000000
ENDCHAR
STARTCHAR U+2518
ENCODING 9496
SWIDTH 1000 0
DWIDTH 34 0
BBX 47 40 -6 -8
BITMAP
000000fe0000
000000fe0000
000000fe0000
000001fc0000
000001fc0000
000001fc0000
000003f80000
000003f80000
000003f80000
000007f00000
000007f00000
000007f00000
00000fe00000
00000fe00000
00000fe00000
00001fc00000
01ffffc00000
01ffffc00000
03ffff800000
03ffff800000
000000000000
000000000000
000000000000
000000000000
000000000000
000000000000
000000000000
000000000000
000000000000
000000000000
000000000000
000000000000
000000000000
000000000000
000000000000
000000000000
000000000000
000000000000
000000000000
000000000000
ENDCHAR
STARTCHAR U+240B
ENCODING 9227
SWIDTH 1000 0
DWIDTH 34 0
BBX 47 40 -6 -8
BITMAP
000000000000
000000000000
000000000000
000000000000
001fc01fc000
001fc01fc000
003f803f8000
003f803f8000
003f803f8000
007f007f0000
007f007f0000
007f007f0000
000fefe00000
000fefe00000
000fefe00000
001fdfc00000
001fdfc00000
001fdfc00000
003fbf800000
003fbf800000
0003fffff800
0007fffff000
0007fffff000
0007fffff000
00000fe00000
00000fe00000
00000fe00000
00001fc00000
00001fc00000
00001fc00000
00003f800000
00003f800000
00003f800000
00007f000000
00007f000000
00007f000000
0000fe000000
0000fe000000
0000fe000000
0001fc000000
ENDCHAR
STARTCHAR U+2424
ENCODING 9252
SWIDTH 1000 0
DWIDTH 34 0
BBX 47 40 -6 -8
BITMAP
000000000000
000000000000
000000000000
000000000000
001fc01fc000
001fc01fc000
003f803f8000
003f803f8000
003ff83f8000
007ff07f0000
007ff07f0000
007ff07f0000
00fefefe0000
00fefefe0000
00fefefe0000
01fdfdfc0000
01fc1ffc0000
01fc1ffc0000
03f83ff80000
03f83ff80000
03f83ff80000
07f07ff00000
07f07ff00000
07f07ff00000
0000fe000000
0000fe000000
0000fe000000
0001fc000000
0001fc000000
0001fc000000
0003f8000000
0003f8000000
0003f8000000
0007f0000000
0007f0000000
0007f0000000
000ffffe0000
000ffffe0000
000ffffe0000
001ffffc0000
ENDCHAR
STARTCHAR U+00B1
ENCODING 177
SWIDTH 1000 0
DWIDTH 34 0
BBX 47 40 -6 -8
BITMAP
000000000000
000000000000
000000000000
000000000000
000000000000
000000000000
000000000000
000000000000
000003f80000
000007f00000
000007f00000
000007f00000
00000fe00000
00000fe00000
00000fe00000
00001fc00000
01fffffffc00
01fffffffc00
03fffffff800
03fffffff800
00003f800000
00007f000000
00007f000000
00007f000000
0000fe000000
0000fe000000
0000fe000000
0001fc000000
1fffffffc000
1fffffffc000
3fffffff8000
3fffffff8000
000000000000
000000000000
000000000000
000000000000
000000000000
000000000000
000000000000
000000000000
ENDCHAR
STARTCHAR U+00B0
ENCODING 176
SWIDTH 1000 0
DWIDTH 34 0
BBX 47 40 -6 -8
BITMAP
000000000000
000000000000
000000000000
000000000000
00001fffc000
00001fffc000
00003fff8000
00003fff8000
0003f803f800
0007f007f000
0007f007f000
0007f007f000
0000fffe0000
0000fffe0000
0000fffe0000
0001fffc0000
000000000000
000000000000
000000000000
000000000000
000000000000
000000000000
000000000000
000000000000
000000000000
000000000000
000000000000
000000000000
000000000000
000000000000
000000000000
000000000000
000000000000
000000000000
000000000000
000000000000
000000000000
000000000000
000000000000
000000000000
ENDCHAR
STARTCHAR U+240A
ENCODING 9226
SWIDTH 1000 0
DWIDTH 34 0
BBX 47 40 -6 -8
BITMAP
000000000000
000000000000
000000000000
000000000000
001fc0000000
001fc0000000
003f80000000
003f80000000
003f80000000
007f00000000
007f00000000
007f00000000
00fe00000000
00fe00000000
00fe00000000
01fc00000000
01fc00000000
01fc00000000
03f800000000
03f800000000
03fffffff800
07fffffff000
07fffffff000
07fffffff000
0000fe000000
0000fe000000
0000fe000000
0001fc000000
0001fffc0000
0001fffc0000
0003fff80000
0003fff80000
0003f8000000
0007f0000000
0007f0000000
0007f0000000
000fe0000000
000fe0000000
000fe0000000
001fc0000000
ENDCHAR
STARTCHAR U+240D
ENCODING 9229
SWIDTH 1000 0
DWIDTH 34 0
BBX 47 40 -6 -8
BITMAP
000000000000
000000000000
000000000000
000000000000
0001fffc0000
0001fffc0000
0003fff80000
0003fff80000
003f80000000
007f00000000
007f00000000
007f00000000
00fe00000000
00fe00000000
00fe00000000
01fc00000000
01fc00000000
01fc00000000
03f800000000
03f800000000
003fffff8000
007fffff0000
007fffff0000
007fffff0000
0000fe0fe000
0000fe0fe000
0000fe0fe000
0001fc1fc000
0001fffc0000
0001fffc0000
0003fff80000
0003fff80000
0003f83f8000
0007f07f0000
0007f07f0000
0007f07f0000
000fe0fe0000
000fe0fe0000
000fe0fe0000
001fc1fc0000
ENDCHAR
STARTCHAR U+240C
ENCODING 9228
SWIDTH 1000 0
DWIDTH 34 0
BBX 47 40 -6 -8
BITMAP
000000000000
000000000000
000000000000
000000000000
001ffffc0000
001ffffc0000
003ffff80000
003ffff80000
003f80000000
007f00000000
007f00000000
007f00000000
00fffe000000
00fffe000000
00fffe000000
01fffc000000
01fc00000000
01fc00000000
03f800000000
03f800000000
03f83ffff800
07f07ffff000
07f07ffff000
07f07ffff000
0000fe000000
0000fe000000
0000fe000000
0001fc000000
0001fffc0000
0001fffc0000
0003fff80000
0003fff80000
0003f8000000
0007f0000000
0007f0000000
0007f0000000
000fe0000000
000fe0000000
000fe0000000
001fc0000000
ENDCHAR
STARTCHAR U+2409
ENCODING 9225
SWIDTH 1000 0
DWIDTH 34 0
BBX 47 40 -6 -8
BITMAP
000000000000
000000000000
000000000000
000000000000
001fc1fc0000
001fc1fc0000
003f83f80000
003f83f80000
003f83f80000
007f07f00000
007f07f00000
007f07f00000
00ffffe00000
00ffffe00000
00ffffe00000
01ffffc00000
01fc1fc00000
01fc1fc00000
03f83f800000
03f83f800000
03fbfffff800
07f7fffff000
07f7fffff000
07f7fffff000
00000fe00000
00000fe00000
00000fe00000
00001fc00000
00001fc00000
00001fc00000
00003f800000
00003f800000
00003f800000
00007f000000
00007f000000
00007f000000
0000fe000000
0000fe000000
0000fe000000
0001fc000000
ENDCHAR
STARTCHAR U+2592
ENCODING 9618
SWIDTH 1000 0
DWIDTH 34 0
BBX 47 40 -6 -8
BITMAP
000000000000
000000000000
000000000000
000000000000
001fc1fc1fc0
001fc1fc1fc0
003f83f83f80
003f83f83f80
0003f803f800
0007f007f000
0007f007f000
0007f007f000
00fe0fe0fe00
00fe0fe0fe00
00fe0fe0fe00
01fc1fc1fc00
001fc01fc000
001fc01fc000
003f803f8000
003f803f8000
03f83f83f800
07f07f07f000
07f07f07f000
07f07f07f000
00fe00fe0000
00fe00fe0000
00fe00fe0000
01fc01fc0000
1fc1fc1fc000
1fc1fc1fc000
3f83f83f8000
3f83f83f8000
000000000000
000000000000
000000000000
000000000000
000000000000
000000000000
000000000000
000000000000
ENDCHAR
STARTCHAR U+25C6
ENCODING 9670
SWIDTH 1000 0
DWIDTH 34 0
BBX 47 40 -6 -8
BITMAP
000000000000
000000000000
000000000000
000000000000
000001fc0000
000001fc0000
000003f80000
000003f80000
00003fff8000
00007fff0000
00007fff0000
00007fff0000
000fffffe000
000fffffe000
000fffffe000
001fffffc000
01fffffffc00
01fffffffc00
03fffffff800
03fffffff800
003fffff8000
007fffff0000
007fffff0000
007fffff0000
000fffe00000
000fffe00000
000fffe00000
001fffc00000
0001fc000000
0001fc000000
0003f8000000
0003f8000000
000000000000
000000000000
000000000000
000000000000
000000000000
000000000000
000000000000
000000000000
ENDCHAR
STARTCHAR U+0020
ENCODING 32
SWIDTH 1000 0
DWIDTH 34 0
BBX 47 40 -6 -8
BITMAP
000000000000
000000000000
000000000000
000000000000
000000000000
000000000000
000000000000
000000000000
000000000000
000000000000
000000000000
000000000000
000000000000
000000000000
000000000000
000000000000
000000000000
000000000000
000000000000
000000000000
000000000000
000000000000
000000000000
000000000000
000000000000
000000000000
000000000000
000000000000
000000000000
000000000000
000000000000
000000000000
000000000000
000000000000
000000000000
000000000000
000000000000
000000000000
000000000000
000000000000
ENDCHAR
ENDFONT
